<svg width="12" height="7" viewBox="0 0 12 7" fill="none" xmlns="http://www.w3.org/2000/svg">
<path d="M5.99999 4.6207L10.073 0.54745C10.2115 0.409117 10.3856 0.338284 10.5952 0.33495C10.8047 0.331784 10.982 0.402617 11.127 0.54745C11.2718 0.69245 11.3442 0.868117 11.3442 1.07445C11.3442 1.28078 11.2718 1.45645 11.127 1.60145L6.63274 6.0957C6.53907 6.1892 6.44032 6.2552 6.33649 6.2937C6.23265 6.3322 6.12049 6.35145 5.99999 6.35145C5.87949 6.35145 5.76732 6.3322 5.66349 6.2937C5.55965 6.2552 5.4609 6.1892 5.36724 6.0957L0.872987 1.60145C0.734653 1.46295 0.66382 1.28887 0.660487 1.0792C0.657321 0.8697 0.728154 0.69245 0.872987 0.54745C1.01799 0.402617 1.19365 0.3302 1.39999 0.3302C1.60632 0.3302 1.78199 0.402617 1.92699 0.54745L5.99999 4.6207Z" fill="#191919"/>
</svg>
