<svg width="6" height="10" viewBox="0 0 6 10" fill="none" xmlns="http://www.w3.org/2000/svg">
<path d="M4.23749 5L0.562494 1.325C0.437494 1.2 0.377077 1.05208 0.381244 0.88125C0.385411 0.710417 0.449994 0.5625 0.574994 0.4375C0.699994 0.3125 0.847911 0.25 1.01874 0.25C1.18958 0.25 1.33749 0.3125 1.46249 0.4375L5.29999 4.2875C5.39999 4.3875 5.47499 4.5 5.52499 4.625C5.57499 4.75 5.59999 4.875 5.59999 5C5.59999 5.125 5.57499 5.25 5.52499 5.375C5.47499 5.5 5.39999 5.6125 5.29999 5.7125L1.44999 9.5625C1.32499 9.6875 1.17916 9.74792 1.01249 9.74375C0.845827 9.73958 0.699994 9.675 0.574994 9.55C0.449994 9.425 0.387494 9.27708 0.387494 9.10625C0.387494 8.93542 0.449994 8.7875 0.574994 8.6625L4.23749 5Z" fill="#4A4A4A"/>
</svg>
