<svg width="12" height="7" viewBox="0 0 12 7" fill="none" xmlns="http://www.w3.org/2000/svg">
<path d="M5.99999 1.72818L10.073 5.80143C10.2115 5.93976 10.3856 6.01059 10.5952 6.01393C10.8047 6.01709 10.982 5.94626 11.127 5.80143C11.2718 5.65643 11.3442 5.48076 11.3442 5.27443C11.3442 5.06809 11.2718 4.89243 11.127 4.74743L6.63274 0.253178C6.53907 0.159678 6.44032 0.0936766 6.33649 0.0551763C6.23265 0.0166764 6.12049 -0.00257349 5.99999 -0.00257349C5.87949 -0.00257349 5.76732 0.0166764 5.66349 0.0551763C5.55965 0.0936766 5.4609 0.159678 5.36724 0.253178L0.872987 4.74743C0.734653 4.88593 0.66382 5.06001 0.660487 5.26968C0.657321 5.47918 0.728154 5.65643 0.872987 5.80143C1.01799 5.94626 1.19365 6.01868 1.39999 6.01868C1.60632 6.01868 1.78199 5.94626 1.92699 5.80143L5.99999 1.72818Z" fill="white"/>
</svg>
