<svg width="18" height="18" viewBox="0 0 18 18" fill="none" xmlns="http://www.w3.org/2000/svg">
<g clip-path="url(#clip0_702_18551)">
<path d="M15.9079 1.72882H15.1797C14.9779 1.72882 14.817 1.89246 14.817 2.09155C14.817 2.29337 14.9806 2.45428 15.1797 2.45428H15.9079C16.5106 2.45428 16.9988 2.94246 16.9988 3.54519V5.36428H1.00064V3.54519C1.00064 2.94246 1.48882 2.45428 2.09155 2.45428H3.54519V3.54519C3.54519 4.14792 4.03337 4.6361 4.6361 4.6361C5.23882 4.6361 5.72701 4.14792 5.72701 3.54519V1.36337C5.72701 0.760643 5.23882 0.272461 4.6361 0.272461C4.03337 0.272461 3.54519 0.760643 3.54519 1.36337V1.7261H2.09155C1.08792 1.72882 0.272461 2.54428 0.272461 3.54519V15.9079C0.272461 16.9116 1.08792 17.727 2.09155 17.727H15.9079C16.9116 17.727 17.727 16.9116 17.727 15.9079V3.54519C17.727 2.54428 16.9116 1.72882 15.9079 1.72882ZM4.27337 1.36337C4.27337 1.16428 4.43701 1.00064 4.6361 1.00064C4.83792 1.00064 4.99882 1.16428 4.99882 1.36337V3.54519C4.99882 3.74428 4.83519 3.90792 4.6361 3.90792C4.43428 3.90792 4.27337 3.74428 4.27337 3.54519V1.36337ZM15.9079 16.9988H2.09155C1.48882 16.9988 1.00064 16.5106 1.00064 15.9079V6.08973H16.9988V15.9079C16.9988 16.5106 16.5106 16.9988 15.9079 16.9988Z" fill="#474747"/>
<path d="M6.45553 2.45428H12.2728V3.54519C12.2728 4.14792 12.761 4.6361 13.3637 4.6361C13.9664 4.6361 14.4546 4.14792 14.4546 3.54519V1.36337C14.4546 0.760643 13.9664 0.272461 13.3637 0.272461C12.761 0.272461 12.2728 0.760643 12.2728 1.36337V1.7261H6.45553C6.25372 1.7261 6.09281 1.88973 6.09281 2.08882C6.09008 2.29337 6.25372 2.45428 6.45553 2.45428ZM12.9983 1.36337C12.9983 1.16428 13.1619 1.00064 13.361 1.00064C13.5628 1.00064 13.7237 1.16428 13.7237 1.36337V3.54519C13.7237 3.74428 13.5601 3.90792 13.361 3.90792C13.1592 3.90792 12.9983 3.74428 12.9983 3.54519V1.36337Z" fill="#474747"/>
<path d="M5.36486 7.90918H3.18304C2.98122 7.90918 2.82031 8.07282 2.82031 8.27191V10.4537C2.82031 10.6555 2.98395 10.8165 3.18304 10.8165H5.36486C5.56668 10.8165 5.72759 10.6528 5.72759 10.4537V8.27191C5.72759 8.07282 5.56668 7.90918 5.36486 7.90918ZM5.00213 10.091H3.54577V8.63736H4.9994V10.091H5.00213Z" fill="#474747"/>
<path d="M10.0904 7.90918H7.90863C7.70681 7.90918 7.5459 8.07282 7.5459 8.27191V10.4537C7.5459 10.6555 7.70953 10.8165 7.90863 10.8165H10.0904C10.2923 10.8165 10.4532 10.6528 10.4532 10.4537V8.27191C10.4532 8.07282 10.2923 7.90918 10.0904 7.90918ZM9.72772 10.091H8.27408V8.63736H9.72772V10.091Z" fill="#474747"/>
<path d="M14.817 7.90918H12.6352C12.4334 7.90918 12.2725 8.07282 12.2725 8.27191V10.4537C12.2725 10.6555 12.4361 10.8165 12.6352 10.8165H14.817C15.0188 10.8165 15.1797 10.6528 15.1797 10.4537V8.27191C15.1797 8.07282 15.0188 7.90918 14.817 7.90918ZM14.4543 10.091H13.0006V8.63736H14.4543V10.091Z" fill="#474747"/>
<path d="M5.36486 12.2725H3.18304C2.98122 12.2725 2.82031 12.4361 2.82031 12.6352V14.817C2.82031 15.0188 2.98395 15.1797 3.18304 15.1797H5.36486C5.56668 15.1797 5.72759 15.0161 5.72759 14.817V12.6352C5.72759 12.4361 5.56668 12.2725 5.36486 12.2725ZM5.00213 14.4543H3.54577V13.0006H4.9994V14.4543H5.00213Z" fill="#474747"/>
<path d="M10.0904 12.2725H7.90863C7.70681 12.2725 7.5459 12.4361 7.5459 12.6352V14.817C7.5459 15.0188 7.70953 15.1797 7.90863 15.1797H10.0904C10.2923 15.1797 10.4532 15.0161 10.4532 14.817V12.6352C10.4532 12.4361 10.2923 12.2725 10.0904 12.2725ZM9.72772 14.4543H8.27408V13.0006H9.72772V14.4543Z" fill="#474747"/>
<path d="M14.817 12.2725H12.6352C12.4334 12.2725 12.2725 12.4361 12.2725 12.6352V14.817C12.2725 15.0188 12.4361 15.1797 12.6352 15.1797H14.817C15.0188 15.1797 15.1797 15.0161 15.1797 14.817V12.6352C15.1797 12.4361 15.0188 12.2725 14.817 12.2725ZM14.4543 14.4543H13.0006V13.0006H14.4543V14.4543Z" fill="#474747"/>
</g>
<defs>
<clipPath id="clip0_702_18551">
<rect width="18" height="18" fill="white"/>
</clipPath>
</defs>
</svg>
