<svg width="14" height="14" viewBox="0 0 14 14" fill="none" xmlns="http://www.w3.org/2000/svg">
<g clip-path="url(#clip0_9_629)">
<path d="M12.0788 7.49996H0.5C0.357667 7.49996 0.23875 7.45221 0.14325 7.35671C0.0477499 7.26121 0 7.14229 0 6.99996C0 6.85762 0.0477499 6.73871 0.14325 6.64321C0.23875 6.54771 0.357667 6.49996 0.5 6.49996H12.0788L6.6405 1.06146C6.543 0.964124 6.492 0.849373 6.4875 0.717207C6.483 0.585207 6.53592 0.46404 6.64625 0.353707C6.75642 0.247374 6.87433 0.193207 7 0.191207C7.12567 0.189374 7.24358 0.24354 7.35375 0.353707L13.4345 6.43446C13.5218 6.52179 13.5831 6.61096 13.6182 6.70196C13.6536 6.79296 13.6712 6.89229 13.6712 6.99996C13.6712 7.10762 13.6536 7.20696 13.6182 7.29796C13.5831 7.38896 13.5218 7.47812 13.4345 7.56546L7.35375 13.6462C7.26025 13.7397 7.1465 13.7897 7.0125 13.7962C6.8785 13.8025 6.75642 13.7525 6.64625 13.6462C6.53592 13.5359 6.48075 13.417 6.48075 13.2895C6.48075 13.1618 6.53592 13.0429 6.64625 12.9327L12.0788 7.49996Z" fill="white"/>
</g>
<defs>
<clipPath id="clip0_9_629">
<rect width="14" height="14" fill="white"/>
</clipPath>
</defs>
</svg>
