<svg width="34" height="61" viewBox="0 0 34 61" fill="none" xmlns="http://www.w3.org/2000/svg">
<path d="M20.4475 49.2602C20.3863 49.2026 20.2652 49.1755 20.1863 49.1214C17.1686 47.0837 15.9144 51.5509 13.3649 52.0804C10.9706 52.578 11.2436 49.8567 9.01409 49.8567C7.42343 49.8567 6.57045 50.4403 5.91748 51.7556C4.05152 55.5182 7.48579 58.9465 10.873 60.0666C11.8342 60.3842 12.3813 60.5748 13.4378 60.5901C15.1849 60.4643 16.7156 59.9936 18.0309 59.1795C19.2945 58.4065 20.3628 56.9782 21.0887 55.6182C22.397 53.9981 21.9676 50.6779 20.4475 49.2602Z" fill="white"/>
<path d="M26.0077 45.8448C23.2582 46.1519 23.5111 50.6909 26.2265 50.4968C29.9444 50.2321 28.8431 45.5272 26.0077 45.8448Z" fill="white"/>
</svg>
