<svg width="25" height="25" viewBox="0 0 25 25" fill="none" xmlns="http://www.w3.org/2000/svg">
<path d="M7.87301 13.2501L13.0423 18.4193C13.1909 18.568 13.2643 18.742 13.2625 18.9413C13.2605 19.1406 13.182 19.3179 13.027 19.4731C12.8718 19.6179 12.6962 19.6929 12.5 19.6981C12.3038 19.7032 12.1282 19.6282 11.973 19.4731L5.63276 13.1328C5.5391 13.0391 5.4731 12.9404 5.43476 12.8366C5.39626 12.7327 5.37701 12.6206 5.37701 12.5001C5.37701 12.3796 5.39626 12.2674 5.43476 12.1636C5.4731 12.0597 5.5391 11.961 5.63276 11.8673L11.973 5.52705C12.1115 5.38855 12.283 5.31772 12.4875 5.31455C12.692 5.31139 12.8718 5.38222 13.027 5.52705C13.182 5.68222 13.2595 5.86039 13.2595 6.06155C13.2595 6.26289 13.182 6.44114 13.027 6.5963L7.87301 11.7501H19.25C19.4628 11.7501 19.641 11.8219 19.7845 11.9656C19.9282 12.1091 20 12.2872 20 12.5001C20 12.7129 19.9282 12.8911 19.7845 13.0346C19.641 13.1782 19.4628 13.2501 19.25 13.2501H7.87301Z" fill="#333333"/>
</svg>
