<svg width="34" height="61" viewBox="0 0 34 61" fill="none" xmlns="http://www.w3.org/2000/svg">
<path d="M7.65982 27.2464C9.91756 28.6453 14.1013 29.0806 16.1684 27.1181C17.9179 26.3369 19.6192 23.9121 18.5391 22.0732C17.1614 19.7296 13.1789 21.2614 11.2482 19.2178C11.2929 18.9037 11.3353 18.9896 11.1317 18.7648C11.0835 17.4224 11.9482 16.8624 11.2047 15.4659C10.0446 13.287 6.84331 13.307 5.27501 15C3.30081 17.133 3.36552 20.2755 4.26908 22.8403C4.85852 24.5145 6.1174 26.2887 7.65982 27.244V27.2464Z" fill="white"/>
<path d="M22.5275 29.0818C25.57 30.3195 27.0795 25.9381 24.397 24.8804C21.551 23.758 19.7792 27.9641 22.5275 29.0818Z" fill="white"/>
</svg>
