<svg width="34" height="61" viewBox="0 0 34 61" fill="none" xmlns="http://www.w3.org/2000/svg">
<path d="M13.6448 43.9177C14.7672 43.2341 16.7591 41.1893 16.8379 39.8493C16.8414 39.781 16.8038 39.7104 16.8073 39.6422C17.5203 38.4351 17.2403 36.9597 16.4579 35.8926C15.2931 34.3055 13.2166 34.9138 11.82 35.9526C10.3059 36.275 9.47524 36.8609 7.83282 36.1268C7.56692 35.4973 7.45633 34.962 7.1422 34.329C5.4233 30.8736 0.707805 33.1949 0.752513 36.6762C0.787809 39.4222 1.75373 41.1505 3.77029 42.86C6.72453 45.3625 10.1717 46.0331 13.6437 43.9177H13.6448Z" fill="white"/>
<path d="M20.4475 49.2602C20.3863 49.2026 20.2652 49.1755 20.1863 49.1214C17.1686 47.0837 15.9144 51.5509 13.3649 52.0804C10.9706 52.578 11.2436 49.8567 9.01409 49.8567C7.42343 49.8567 6.57045 50.4403 5.91748 51.7556C4.05152 55.5182 7.48579 58.9465 10.873 60.0666C11.8342 60.3842 12.3813 60.5748 13.4378 60.5901C15.1849 60.4643 16.7156 59.9936 18.0309 59.1795C19.2945 58.4065 20.3628 56.9782 21.0887 55.6182C22.397 53.9981 21.9676 50.6779 20.4475 49.2602Z" fill="white"/>
<path d="M18.6568 15.48C21.564 16.6977 26.5525 16.6789 27.7925 13.1481C29.0302 9.62211 24.0806 9.70917 22.5582 7.72085C21.057 5.75959 23.0888 5.23957 22.9323 3.33949C22.6841 0.322889 17.7768 -0.38773 16.3073 2.09355C16.1238 2.22415 16.0897 2.33356 15.985 2.43239C12.3895 5.84666 14.0531 13.5517 18.6568 15.4812V15.48Z" fill="white"/>
<path d="M7.65982 27.2464C9.91756 28.6453 14.1013 29.0806 16.1684 27.1181C17.9179 26.3369 19.6192 23.9121 18.5391 22.0732C17.1614 19.7296 13.1789 21.2614 11.2482 19.2178C11.2929 18.9037 11.3353 18.9896 11.1317 18.7648C11.0835 17.4224 11.9482 16.8624 11.2047 15.4659C10.0446 13.287 6.84331 13.307 5.27501 15C3.30081 17.133 3.36552 20.2755 4.26908 22.8403C4.85852 24.5145 6.1174 26.2887 7.65982 27.244V27.2464Z" fill="white"/>
<path d="M22.7135 35.0044C19.5321 34.9562 19.5604 39.5211 22.4476 39.5952C25.7642 39.6811 25.5277 35.0468 22.7135 35.0044Z" fill="white"/>
<path d="M22.5275 29.0818C25.57 30.3195 27.0795 25.9381 24.397 24.8804C21.551 23.758 19.7792 27.9641 22.5275 29.0818Z" fill="white"/>
<path d="M31.8115 15.8447C28.9938 14.8105 27.0149 19.6202 30.9362 20.3367C33.3351 20.7743 34.5023 16.833 31.8115 15.8447Z" fill="white"/>
<path d="M26.0077 45.8448C23.2582 46.1519 23.5111 50.6909 26.2265 50.4968C29.9444 50.2321 28.8431 45.5272 26.0077 45.8448Z" fill="white"/>
</svg>
