<svg width="28" height="25" viewBox="0 0 28 25" fill="none" xmlns="http://www.w3.org/2000/svg">
<path d="M14 24.1914C13.6222 24.1914 13.3055 24.0636 13.05 23.8081C12.7944 23.5525 12.6666 23.2359 12.6666 22.8581C12.6666 22.4803 12.7944 22.1636 13.05 21.9081C13.3055 21.6525 13.6222 21.5247 14 21.5247H23.3333V12.0581C23.3333 9.45807 22.4277 7.25252 20.6166 5.44141C18.8055 3.6303 16.6 2.72474 14 2.72474C11.4 2.72474 9.1944 3.6303 7.38329 5.44141C5.57218 7.25252 4.66663 9.45807 4.66663 12.0581V18.8581C4.66663 19.2359 4.53885 19.5525 4.28329 19.8081C4.02774 20.0636 3.71107 20.1914 3.33329 20.1914C2.59996 20.1914 1.97218 19.9303 1.44996 19.4081C0.927737 18.8859 0.666626 18.2581 0.666626 17.5247V14.8581C0.666626 14.3914 0.783293 13.9525 1.01663 13.5414C1.24996 13.1303 1.57774 12.8025 1.99996 12.5581L2.09996 10.7914C2.27774 9.2803 2.71663 7.8803 3.41663 6.59141C4.11663 5.30252 4.9944 4.1803 6.04996 3.22474C7.10551 2.26918 8.31663 1.52474 9.68329 0.991406C11.05 0.458073 12.4888 0.191406 14 0.191406C15.5111 0.191406 16.9444 0.458073 18.3 0.991406C19.6555 1.52474 20.8666 2.26363 21.9333 3.20807C23 4.15252 23.8777 5.26918 24.5666 6.55807C25.2555 7.84696 25.7 9.24696 25.9 10.7581L26 12.4914C26.4222 12.6914 26.75 12.9914 26.9833 13.3914C27.2166 13.7914 27.3333 14.2136 27.3333 14.6581V17.7247C27.3333 18.1692 27.2166 18.5914 26.9833 18.9914C26.75 19.3914 26.4222 19.6914 26 19.8914V21.5247C26 22.2581 25.7388 22.8859 25.2166 23.4081C24.6944 23.9303 24.0666 24.1914 23.3333 24.1914H14ZM9.99996 14.8581C9.62218 14.8581 9.30551 14.7303 9.04996 14.4747C8.7944 14.2192 8.66663 13.9025 8.66663 13.5247C8.66663 13.147 8.7944 12.8303 9.04996 12.5747C9.30551 12.3192 9.62218 12.1914 9.99996 12.1914C10.3777 12.1914 10.6944 12.3192 10.95 12.5747C11.2055 12.8303 11.3333 13.147 11.3333 13.5247C11.3333 13.9025 11.2055 14.2192 10.95 14.4747C10.6944 14.7303 10.3777 14.8581 9.99996 14.8581ZM18 14.8581C17.6222 14.8581 17.3055 14.7303 17.05 14.4747C16.7944 14.2192 16.6666 13.9025 16.6666 13.5247C16.6666 13.147 16.7944 12.8303 17.05 12.5747C17.3055 12.3192 17.6222 12.1914 18 12.1914C18.3777 12.1914 18.6944 12.3192 18.95 12.5747C19.2055 12.8303 19.3333 13.147 19.3333 13.5247C19.3333 13.9025 19.2055 14.2192 18.95 14.4747C18.6944 14.7303 18.3777 14.8581 18 14.8581ZM6.03329 12.7914C5.87774 10.4359 6.58885 8.41363 8.16663 6.72474C9.7444 5.03585 11.7111 4.19141 14.0666 4.19141C16.0444 4.19141 17.7833 4.81918 19.2833 6.07474C20.7833 7.3303 21.6888 8.93585 22 10.8914C19.9777 10.8692 18.1166 10.3247 16.4166 9.25807C14.7166 8.19141 13.4111 6.74696 12.5 4.92474C12.1444 6.70252 11.3944 8.28585 10.25 9.67474C9.10551 11.0636 7.69996 12.1025 6.03329 12.7914Z" fill="white"/>
</svg>
