<svg width="34" height="61" viewBox="0 0 34 61" fill="none" xmlns="http://www.w3.org/2000/svg">
<path d="M13.6448 43.9177C14.7672 43.2341 16.7591 41.1893 16.8379 39.8493C16.8414 39.781 16.8038 39.7104 16.8073 39.6422C17.5203 38.4351 17.2403 36.9597 16.4579 35.8926C15.2931 34.3055 13.2166 34.9138 11.82 35.9526C10.3059 36.275 9.47524 36.8609 7.83282 36.1268C7.56692 35.4973 7.45633 34.962 7.1422 34.329C5.4233 30.8736 0.707805 33.1949 0.752513 36.6762C0.787809 39.4222 1.75373 41.1505 3.77029 42.86C6.72453 45.3625 10.1717 46.0331 13.6437 43.9177H13.6448Z" fill="white"/>
<path d="M22.7135 35.0044C19.5321 34.9562 19.5604 39.5211 22.4476 39.5952C25.7642 39.6811 25.5277 35.0468 22.7135 35.0044Z" fill="white"/>
</svg>
