<svg width="25" height="25" viewBox="0 0 25 25" fill="none" xmlns="http://www.w3.org/2000/svg">
<path d="M17.19 13.2501L12.0208 18.4193C11.8721 18.568 11.7987 18.742 11.8005 18.9413C11.8025 19.1406 11.881 19.3179 12.036 19.4731C12.1912 19.6179 12.3669 19.6929 12.563 19.6981C12.7592 19.7032 12.9349 19.6282 13.09 19.4731L19.4303 13.1328C19.524 13.0391 19.59 12.9404 19.6283 12.8366C19.6668 12.7327 19.686 12.6206 19.686 12.5001C19.686 12.3796 19.6668 12.2674 19.6283 12.1636C19.59 12.0597 19.524 11.961 19.4303 11.8673L13.09 5.52705C12.9515 5.38855 12.78 5.31772 12.5755 5.31455C12.371 5.31139 12.1912 5.38222 12.036 5.52705C11.881 5.68222 11.8035 5.86039 11.8035 6.06155C11.8035 6.26289 11.881 6.44114 12.036 6.5963L17.19 11.7501H5.81304C5.6002 11.7501 5.42204 11.8219 5.27853 11.9656C5.13487 12.1091 5.06304 12.2872 5.06304 12.5001C5.06304 12.7129 5.13487 12.8911 5.27853 13.0346C5.42204 13.1782 5.6002 13.2501 5.81304 13.2501H17.19Z" fill="#333333"/>
</svg>
