<svg width="16" height="18" viewBox="0 0 16 18" fill="none" xmlns="http://www.w3.org/2000/svg">
<g clip-path="url(#clip0_68_487)">
<path d="M15.0667 16.5943C13.2148 16.5943 11.3852 16.1906 9.57778 15.3832C7.77037 14.5758 6.12593 13.4313 4.64444 11.9498C3.16296 10.4683 2.01852 8.8239 1.21111 7.0165C0.403704 5.20909 0 3.37946 0 1.52761C0 1.26094 0.0888889 1.03872 0.266667 0.860939C0.444444 0.683162 0.666667 0.594273 0.933333 0.594273H4.53333C4.74074 0.594273 4.92593 0.664643 5.08889 0.805384C5.25185 0.946124 5.34815 1.11279 5.37778 1.30538L5.95556 4.41649C5.98519 4.65353 5.97778 4.85353 5.93333 5.01649C5.88889 5.17946 5.80741 5.3202 5.68889 5.43872L3.53333 7.6165C3.82963 8.16464 4.18148 8.69427 4.58889 9.20538C4.9963 9.7165 5.44444 10.2091 5.93333 10.6832C6.39259 11.1424 6.87407 11.5683 7.37778 11.9609C7.88148 12.3535 8.41481 12.7128 8.97778 13.0387L11.0667 10.9498C11.2 10.8165 11.3741 10.7165 11.5889 10.6498C11.8037 10.5832 12.0148 10.5646 12.2222 10.5943L15.2889 11.2165C15.4963 11.2758 15.6667 11.3832 15.8 11.5387C15.9333 11.6943 16 11.8683 16 12.0609V15.6609C16 15.9276 15.9111 16.1498 15.7333 16.3276C15.5556 16.5054 15.3333 16.5943 15.0667 16.5943Z" fill="white"/>
</g>
<defs>
<clipPath id="clip0_68_487">
<rect width="16" height="16.8889" fill="white" transform="translate(0 0.31461)"/>
</clipPath>
</defs>
</svg>
