<svg width="16" height="18" viewBox="0 0 16 18" fill="none" xmlns="http://www.w3.org/2000/svg">
<g clip-path="url(#clip0_20_1907)">
<path d="M15.0667 16.5971C13.2148 16.5971 11.3852 16.1934 9.57778 15.386C7.77037 14.5786 6.12593 13.4341 4.64444 11.9527C3.16296 10.4712 2.01852 8.82674 1.21111 7.01933C0.403704 5.21192 0 3.38229 0 1.53044C0 1.26377 0.0888889 1.04155 0.266667 0.863774C0.444444 0.685996 0.666667 0.597107 0.933333 0.597107H4.53333C4.74074 0.597107 4.92593 0.667477 5.08889 0.808218C5.25185 0.948959 5.34815 1.11563 5.37778 1.30822L5.95556 4.41933C5.98519 4.65637 5.97778 4.85637 5.93333 5.01933C5.88889 5.18229 5.80741 5.32303 5.68889 5.44155L3.53333 7.61933C3.82963 8.16748 4.18148 8.69711 4.58889 9.20822C4.9963 9.71933 5.44444 10.2119 5.93333 10.686C6.39259 11.1453 6.87407 11.5712 7.37778 11.9638C7.88148 12.3564 8.41481 12.7156 8.97778 13.0416L11.0667 10.9527C11.2 10.8193 11.3741 10.7193 11.5889 10.6527C11.8037 10.586 12.0148 10.5675 12.2222 10.5971L15.2889 11.2193C15.4963 11.2786 15.6667 11.386 15.8 11.5416C15.9333 11.6971 16 11.8712 16 12.0638V15.6638C16 15.9304 15.9111 16.1527 15.7333 16.3304C15.5556 16.5082 15.3333 16.5971 15.0667 16.5971Z" fill="#1C1C1C"/>
</g>
<defs>
<clipPath id="clip0_20_1907">
<rect width="16" height="16.8889" fill="white" transform="translate(0 0.317444)"/>
</clipPath>
</defs>
</svg>
