<svg width="16" height="21" viewBox="0 0 16 21" fill="none" xmlns="http://www.w3.org/2000/svg">
<path d="M8 14.5C8.28333 14.5 8.52083 14.4042 8.7125 14.2125C8.90417 14.0208 9 13.7833 9 13.5C9 13.2167 8.90417 12.9792 8.7125 12.7875C8.52083 12.5958 8.28333 12.5 8 12.5C7.71667 12.5 7.47917 12.5958 7.2875 12.7875C7.09583 12.9792 7 13.2167 7 13.5C7 13.7833 7.09583 14.0208 7.2875 14.2125C7.47917 14.4042 7.71667 14.5 8 14.5ZM7 10.5H9V5.5H7V10.5ZM8 20.5C5.68333 19.9167 3.77083 18.5875 2.2625 16.5125C0.754167 14.4375 0 12.1333 0 9.6V3.5L8 0.5L16 3.5V9.6C16 12.1333 15.2458 14.4375 13.7375 16.5125C12.2292 18.5875 10.3167 19.9167 8 20.5Z" fill="#4A4A4A"/>
</svg>
