<svg width="30" height="31" viewBox="0 0 30 31" fill="none" xmlns="http://www.w3.org/2000/svg">
<g clip-path="url(#clip0_200_5249)">
<path d="M27.1473 4.80244L13.4205 18.5293L9.12541 14.2342C8.53238 13.6412 7.57101 13.6412 6.97798 14.2342C6.38494 14.8272 6.38494 15.7886 6.97798 16.3816L12.4555 21.8591C12.9885 22.3921 13.8525 22.3921 14.3855 21.8591L29.2947 6.94988C29.8878 6.35684 29.8878 5.39548 29.2947 4.80244C28.7017 4.20941 27.7403 4.20941 27.1473 4.80244Z" fill="white"/>
<path d="M27.2364 16.6893C26.4296 22.747 21.1928 27.424 14.9001 27.3442C8.21433 27.2595 2.79096 21.7807 2.77202 15.0944C2.75271 8.30326 8.27189 2.77221 15.0586 2.77221C16.086 2.77221 17.0842 2.89939 18.0385 3.13825C18.6671 3.29564 19.3214 3.00285 19.6113 2.42339C19.6155 2.41498 19.6197 2.40675 19.6237 2.39834C20.0182 1.61005 19.5797 0.660925 18.7243 0.447693C17.54 0.152227 16.311 0 15.0586 0C11.0363 0 7.25469 1.56626 4.41057 4.41057C1.56645 7.25469 0 11.0363 0 15.0586C0 19.081 1.56645 22.8624 4.41057 25.7067C7.25469 28.5508 11.0363 30.1172 15.0586 30.1172C19.081 30.1172 22.8625 28.5508 25.7067 25.7067C28.0784 23.3349 29.5611 20.3114 29.9883 17.0399C30.0958 16.2171 29.4548 15.4872 28.625 15.4872H28.5997C27.9075 15.4872 27.328 16.003 27.2366 16.6891L27.2364 16.6893Z" fill="#ECECEC"/>
</g>
<defs>
<clipPath id="clip0_200_5249">
<rect width="30" height="30.1172" fill="white"/>
</clipPath>
</defs>
</svg>
