<svg width="15" height="17" viewBox="0 0 15 17" fill="none" xmlns="http://www.w3.org/2000/svg">
<path d="M1.66667 16C1.20833 16 0.815972 15.8368 0.489583 15.5104C0.163194 15.184 0 14.7917 0 14.3333V2.66667C0 2.20833 0.163194 1.81597 0.489583 1.48958C0.815972 1.16319 1.20833 1 1.66667 1H13.3333C13.7917 1 14.184 1.16319 14.5104 1.48958C14.8368 1.81597 15 2.20833 15 2.66667V14.3333C15 14.7917 14.8368 15.184 14.5104 15.5104C14.184 15.8368 13.7917 16 13.3333 16H1.66667ZM2.5 12.6667H12.5L9.375 8.5L6.875 11.8333L5 9.33333L2.5 12.6667Z" fill="white"/>
</svg>
