<svg width="89" height="59" viewBox="0 0 89 59" fill="none" xmlns="http://www.w3.org/2000/svg">
<g clip-path="url(#clip0_3_162)">
<path d="M81.6727 0.512085H6.68904C3.04106 0.512085 0.0839844 3.46916 0.0839844 7.11715V51.6893C0.0839844 55.3371 3.04106 58.2943 6.68904 58.2943H81.6727C85.3205 58.2943 88.2778 55.3373 88.2778 51.6893V7.11715C88.2778 3.46916 85.3207 0.512085 81.6727 0.512085Z" fill="#F7F7F7"/>
<path d="M0.447144 4.95691H87.9142C87.0192 2.37018 84.5635 0.512085 81.6726 0.512085H6.68892C3.79782 0.512085 1.34234 2.37018 0.447144 4.95691Z" fill="#FF4B55"/>
<path d="M88.2778 18.2911H0.0839844V22.7357H88.2778V18.2911Z" fill="#FF4B55"/>
<path d="M88.2778 9.40106H0.0839844V13.8457H88.2778V9.40106Z" fill="#FF4B55"/>
<path d="M0.0839844 30.1049C0.0839844 30.9446 0.764902 31.6256 1.60464 31.6256H88.2778V27.1807H0.0839844V30.1049Z" fill="#FF4B55"/>
<path d="M88.2778 44.9611H0.0839844V49.4059H88.2778V44.9611Z" fill="#FF4B55"/>
<path d="M87.9144 53.8494H0.447144C1.34234 56.4361 3.79799 58.2942 6.68892 58.2942H81.6726C84.5637 58.2942 87.0192 56.4361 87.9144 53.8494Z" fill="#FF4B55"/>
<path d="M88.2778 36.071H0.0839844V40.5157H88.2778V36.071Z" fill="#FF4B55"/>
<path d="M1.60464 31.6255H39.6193C40.459 31.6255 41.1399 30.9446 41.1399 30.1048V2.03249C41.1399 1.19259 40.459 0.511841 39.6193 0.511841H6.68904C3.04106 0.512013 0.0839844 3.46909 0.0839844 7.11707V30.1048C0.0839844 30.9447 0.764902 31.6255 1.60464 31.6255Z" fill="#41479B"/>
<path d="M4.35386 4.00221L4.69045 5.01161L5.75446 5.01971C5.89226 5.02092 5.94928 5.19661 5.83852 5.27843L4.98259 5.91043L5.30367 6.92483C5.34536 7.05609 5.19567 7.16495 5.08353 7.08468L4.21796 6.46612L3.35238 7.08486C3.24025 7.16513 3.0909 7.05626 3.13224 6.925L3.45332 5.9106L2.5974 5.27861C2.48664 5.19661 2.54365 5.02092 2.68146 5.01988L3.74547 5.01179L4.08205 4.00238C4.12546 3.87147 4.31011 3.87147 4.35386 4.00221Z" fill="#F7F7F7"/>
<path d="M4.35386 9.28235L4.69045 10.2918L5.75446 10.2999C5.89226 10.3011 5.94928 10.4766 5.83852 10.5586L4.98259 11.1908L5.30367 12.2051C5.34536 12.3364 5.19567 12.4453 5.08353 12.365L4.21796 11.7464L3.35238 12.3652C3.24025 12.4453 3.0909 12.3366 3.13224 12.2053L3.45332 11.1909L2.5974 10.5588C2.48664 10.4768 2.54365 10.3012 2.68146 10.3L3.74547 10.2919L4.08205 9.28253C4.12546 9.15179 4.31011 9.15178 4.35386 9.28235Z" fill="#F7F7F7"/>
<path d="M4.35386 14.5628L4.69045 15.5722L5.75446 15.5803C5.89226 15.5815 5.94928 15.7571 5.83852 15.839L4.98259 16.4712L5.30367 17.4856C5.34536 17.6169 5.19567 17.7257 5.08353 17.6455L4.21796 17.0269L3.35238 17.6456C3.24025 17.7257 3.0909 17.6172 3.13224 17.4858L3.45332 16.4714L2.5974 15.8392C2.48664 15.7572 2.54365 15.5817 2.68146 15.5805L3.74547 15.5724L4.08205 14.563C4.12546 14.4321 4.31011 14.4321 4.35386 14.5628Z" fill="#F7F7F7"/>
<path d="M4.35386 19.843L4.69045 20.8524L5.75446 20.8605C5.89226 20.8617 5.94928 21.0374 5.83852 21.1193L4.98259 21.7514L5.30367 22.7658C5.34536 22.8971 5.19567 23.0059 5.08353 22.9257L4.21796 22.3071L3.35238 22.9258C3.24025 23.0059 3.0909 22.8973 3.13224 22.766L3.45332 21.7516L2.5974 21.1194C2.48664 21.0378 2.54365 20.8619 2.68146 20.8607L3.74547 20.8526L4.08205 19.8432C4.12546 19.7123 4.31011 19.7123 4.35386 19.843Z" fill="#F7F7F7"/>
<path d="M4.35386 25.1233L4.69045 26.1327L5.75446 26.1408C5.89226 26.142 5.94928 26.3175 5.83852 26.3995L4.98259 27.0317L5.30367 28.0461C5.34536 28.1773 5.19567 28.2862 5.08353 28.2059L4.21796 27.5874L3.35238 28.2061C3.24025 28.2862 3.0909 28.1775 3.13224 28.0463L3.45332 27.0319L2.5974 26.3997C2.48664 26.3177 2.54365 26.1422 2.68146 26.141L3.74547 26.1329L4.08205 25.1235C4.12546 24.9927 4.31011 24.9927 4.35386 25.1233Z" fill="#F7F7F7"/>
<path d="M8.45238 6.59091L8.78896 7.60031L9.85297 7.60841C9.99077 7.60962 10.0478 7.78531 9.93703 7.86713L9.0811 8.4993L9.40218 9.5137C9.44387 9.64496 9.29418 9.75383 9.18204 9.67356L8.31647 9.05482L7.45089 9.67356C7.33876 9.75365 7.18941 9.64496 7.23075 9.5137L7.55183 8.4993L6.69591 7.86713C6.58515 7.78514 6.64216 7.60962 6.77997 7.60841L7.84398 7.60031L8.18056 6.59091C8.22397 6.46034 8.4088 6.46034 8.45238 6.59091Z" fill="#F7F7F7"/>
<path d="M8.45238 11.8713L8.78896 12.8807L9.85297 12.8888C9.99077 12.89 10.0478 13.0657 9.93703 13.1475L9.0811 13.7797L9.40218 14.7941C9.44387 14.9254 9.29418 15.0342 9.18204 14.954L8.31647 14.3352L7.45089 14.954C7.33876 15.0341 7.18941 14.9255 7.23075 14.7941L7.55183 13.7797L6.69591 13.1475C6.58515 13.0659 6.64216 12.89 6.77997 12.8888L7.84398 12.8807L8.18056 11.8713C8.22397 11.7406 8.4088 11.7406 8.45238 11.8713Z" fill="#F7F7F7"/>
<path d="M8.45238 17.1516L8.78896 18.161L9.85297 18.1691C9.99077 18.1703 10.0478 18.3458 9.93703 18.4278L9.0811 19.06L9.40218 20.0744C9.44387 20.2056 9.29418 20.3145 9.18204 20.2342L8.31647 19.6155L7.45089 20.2342C7.33876 20.3143 7.18941 20.2056 7.23075 20.0744L7.55183 19.06L6.69591 18.4278C6.58515 18.3458 6.64216 18.1703 6.77997 18.1691L7.84398 18.161L8.18056 17.1516C8.22397 17.0208 8.4088 17.0208 8.45238 17.1516Z" fill="#F7F7F7"/>
<path d="M8.45238 22.4318L8.78896 23.4413L9.85297 23.4494C9.99077 23.4506 10.0478 23.6261 9.93703 23.7081L9.0811 24.3402L9.40218 25.3546C9.44387 25.4859 9.29418 25.5948 9.18204 25.5145L8.31647 24.8958L7.45089 25.5145C7.33876 25.5948 7.18941 25.4859 7.23075 25.3546L7.55183 24.3402L6.69591 23.7081C6.58515 23.6261 6.64216 23.4506 6.77997 23.4494L7.84398 23.4413L8.18056 22.4318C8.22397 22.3013 8.4088 22.3013 8.45238 22.4318Z" fill="#F7F7F7"/>
<path d="M12.5508 4.00211L12.8873 5.01151L13.9514 5.01961C14.0892 5.02081 14.1462 5.19651 14.0354 5.27833L13.1795 5.91033L13.5006 6.92473C13.5423 7.05599 13.3926 7.16485 13.2804 7.08458L12.4149 6.46585L11.5493 7.08458C11.4371 7.16485 11.2878 7.05599 11.3291 6.92473L11.6502 5.91033L10.7943 5.27833C10.6835 5.19634 10.7406 5.02064 10.8784 5.01961L11.9424 5.01151L12.2789 4.00211C12.3224 3.87137 12.5072 3.87137 12.5508 4.00211Z" fill="#F7F7F7"/>
<path d="M12.5508 9.28237L12.8873 10.2918L13.9514 10.2999C14.0892 10.3011 14.1462 10.4766 14.0354 10.5586L13.1795 11.1908L13.5006 12.2052C13.5423 12.3364 13.3926 12.4453 13.2804 12.365L12.4149 11.7463L11.5493 12.365C11.4371 12.4451 11.2878 12.3364 11.3291 12.2052L11.6502 11.1908L10.7943 10.5586C10.6835 10.4766 10.7406 10.3011 10.8784 10.2999L11.9424 10.2918L12.2789 9.28237C12.3224 9.15181 12.5072 9.15181 12.5508 9.28237Z" fill="#F7F7F7"/>
<path d="M12.5508 14.5628L12.8873 15.5722L13.9514 15.5803C14.0892 15.5815 14.1462 15.757 14.0354 15.839L13.1795 16.4712L13.5006 17.4856C13.5423 17.6168 13.3926 17.7257 13.2804 17.6454L12.4149 17.0267L11.5493 17.6454C11.4371 17.7255 11.2878 17.617 11.3291 17.4856L11.6502 16.4712L10.7943 15.839C10.6835 15.757 10.7406 15.5815 10.8784 15.5803L11.9424 15.5722L12.2789 14.5628C12.3224 14.432 12.5072 14.432 12.5508 14.5628Z" fill="#F7F7F7"/>
<path d="M12.5508 19.8431L12.8873 20.8525L13.9514 20.8606C14.0892 20.8618 14.1462 21.0375 14.0354 21.1193L13.1795 21.7514L13.5006 22.7658C13.5423 22.8971 13.3926 23.006 13.2804 22.9257L12.4149 22.307L11.5493 22.9257C11.4371 23.0058 11.2878 22.8971 11.3291 22.7658L11.6502 21.7514L10.7943 21.1193C10.6835 21.0376 10.7406 20.8618 10.8784 20.8606L11.9424 20.8525L12.2789 19.8431C12.3224 19.7123 12.5072 19.7123 12.5508 19.8431Z" fill="#F7F7F7"/>
<path d="M12.5508 25.1233L12.8873 26.1327L13.9514 26.1408C14.0892 26.142 14.1462 26.3175 14.0354 26.3995L13.1795 27.0317L13.5006 28.0461C13.5423 28.1774 13.3926 28.2862 13.2804 28.206L12.4149 27.5872L11.5493 28.206C11.4371 28.2861 11.2878 28.1774 11.3291 28.0461L11.6502 27.0317L10.7943 26.3995C10.6835 26.3175 10.7406 26.142 10.8784 26.1408L11.9424 26.1327L12.2789 25.1233C12.3224 24.9927 12.5072 24.9927 12.5508 25.1233Z" fill="#F7F7F7"/>
<path d="M16.6494 6.59091L16.986 7.60031L18.05 7.60841C18.1878 7.60962 18.2448 7.78531 18.1341 7.86713L17.2781 8.4993L17.5992 9.5137C17.6409 9.64496 17.4912 9.75383 17.3791 9.67356L16.5135 9.05482L15.6479 9.67356C15.5358 9.75365 15.3864 9.64496 15.4278 9.5137L15.7489 8.4993L14.8929 7.86713C14.7822 7.78514 14.8392 7.60962 14.977 7.60841L16.041 7.60031L16.3776 6.59091C16.4208 6.46034 16.6058 6.46034 16.6494 6.59091Z" fill="#F7F7F7"/>
<path d="M16.6494 11.8713L16.986 12.8807L18.05 12.8888C18.1878 12.89 18.2448 13.0657 18.1341 13.1475L17.2781 13.7797L17.5992 14.7941C17.6409 14.9254 17.4912 15.0342 17.3791 14.954L16.5135 14.3352L15.6479 14.954C15.5358 15.0341 15.3864 14.9255 15.4278 14.7941L15.7489 13.7797L14.8929 13.1475C14.7822 13.0659 14.8392 12.89 14.977 12.8888L16.041 12.8807L16.3776 11.8713C16.4208 11.7406 16.6058 11.7406 16.6494 11.8713Z" fill="#F7F7F7"/>
<path d="M16.6494 17.1516L16.986 18.161L18.05 18.1691C18.1878 18.1703 18.2448 18.3458 18.1341 18.4278L17.2781 19.06L17.5992 20.0744C17.6409 20.2056 17.4912 20.3145 17.3791 20.2342L16.5135 19.6155L15.6479 20.2342C15.5358 20.3143 15.3864 20.2056 15.4278 20.0744L15.7489 19.06L14.8929 18.4278C14.7822 18.3458 14.8392 18.1703 14.977 18.1691L16.041 18.161L16.3776 17.1516C16.4208 17.0208 16.6058 17.0208 16.6494 17.1516Z" fill="#F7F7F7"/>
<path d="M16.6494 22.4318L16.986 23.4413L18.05 23.4494C18.1878 23.4506 18.2448 23.6261 18.1341 23.7081L17.2781 24.3402L17.5992 25.3546C17.6409 25.4859 17.4912 25.5948 17.3791 25.5145L16.5135 24.8958L15.6479 25.5145C15.5358 25.5948 15.3864 25.4859 15.4278 25.3546L15.7489 24.3402L14.8929 23.7081C14.7822 23.6261 14.8392 23.4506 14.977 23.4494L16.041 23.4413L16.3776 22.4318C16.4208 22.3013 16.6058 22.3013 16.6494 22.4318Z" fill="#F7F7F7"/>
<path d="M20.7478 4.00209L21.0844 5.01149L22.1484 5.01959C22.2862 5.02079 22.3432 5.19649 22.2325 5.27831L21.3766 5.91031L21.6976 6.92471C21.7393 7.05597 21.5896 7.16483 21.4775 7.08456L20.6118 6.466L19.7462 7.08473C19.634 7.165 19.4847 7.05614 19.526 6.92488L19.8471 5.91048L18.9912 5.27848C18.8804 5.19649 18.9375 5.02079 19.0753 5.01976L20.1393 5.01166L20.4758 4.00226C20.5194 3.87135 20.7043 3.87135 20.7478 4.00209Z" fill="#F7F7F7"/>
<path d="M20.7478 9.28237L21.0844 10.2918L22.1484 10.2999C22.2862 10.3011 22.3432 10.4766 22.2325 10.5586L21.3766 11.1908L21.6976 12.2052C21.7393 12.3364 21.5896 12.4453 21.4775 12.365L20.6118 11.7463L19.7462 12.365C19.634 12.4451 19.4847 12.3364 19.526 12.2052L19.8471 11.1908L18.9912 10.5586C18.8804 10.4766 18.9375 10.3011 19.0753 10.2999L20.1393 10.2918L20.4758 9.28237C20.5194 9.15181 20.7043 9.15181 20.7478 9.28237Z" fill="#F7F7F7"/>
<path d="M20.7478 14.5628L21.0844 15.5722L22.1484 15.5803C22.2862 15.5815 22.3432 15.757 22.2325 15.839L21.3766 16.4712L21.6976 17.4856C21.7393 17.6169 21.5896 17.7257 21.4775 17.6454L20.6118 17.0265L19.7462 17.6453C19.634 17.7254 19.4847 17.6167 19.526 17.4854L19.8471 16.471L18.9912 15.8389C18.8804 15.7569 18.9375 15.5813 19.0753 15.5801L20.1393 15.572L20.4758 14.5626C20.5194 14.4321 20.7043 14.4321 20.7478 14.5628Z" fill="#F7F7F7"/>
<path d="M20.7478 19.8431L21.0844 20.8525L22.1484 20.8606C22.2862 20.8618 22.3432 21.0375 22.2325 21.1193L21.3766 21.7514L21.6976 22.7658C21.7393 22.8971 21.5896 23.006 21.4775 22.9257L20.6118 22.307L19.7462 22.9257C19.634 23.0058 19.4847 22.8971 19.526 22.7658L19.8471 21.7514L18.9912 21.1193C18.8804 21.0376 18.9375 20.8618 19.0753 20.8606L20.1393 20.8525L20.4758 19.8431C20.5194 19.7123 20.7043 19.7123 20.7478 19.8431Z" fill="#F7F7F7"/>
<path d="M20.7478 25.1233L21.0844 26.1327L22.1484 26.1408C22.2862 26.142 22.3432 26.3175 22.2325 26.3995L21.3766 27.0317L21.6976 28.0461C21.7393 28.1774 21.5896 28.2862 21.4775 28.206L20.6118 27.5872L19.7462 28.206C19.634 28.2861 19.4847 28.1774 19.526 28.0461L19.8471 27.0317L18.9912 26.3995C18.8804 26.3175 18.9375 26.142 19.0753 26.1408L20.1393 26.1327L20.4758 25.1233C20.5194 24.9927 20.7043 24.9927 20.7478 25.1233Z" fill="#F7F7F7"/>
<path d="M24.8463 6.59091L25.1829 7.60031L26.2469 7.60841C26.3847 7.60962 26.4417 7.78531 26.3309 7.86713L25.475 8.4993L25.7961 9.5137C25.8378 9.64496 25.6881 9.75383 25.576 9.67356L24.7104 9.05482L23.8448 9.67356C23.7327 9.75365 23.5833 9.64496 23.6247 9.5137L23.9458 8.4993L23.0898 7.86713C22.9791 7.78514 23.0361 7.60962 23.1739 7.60841L24.2379 7.60031L24.5745 6.59091C24.6181 6.46034 24.8027 6.46034 24.8463 6.59091Z" fill="#F7F7F7"/>
<path d="M24.8463 11.8713L25.1829 12.8807L26.2469 12.8888C26.3847 12.89 26.4417 13.0657 26.3309 13.1475L25.475 13.7797L25.7961 14.7941C25.8378 14.9254 25.6881 15.0342 25.576 14.954L24.7104 14.3352L23.8448 14.954C23.7327 15.0341 23.5833 14.9255 23.6247 14.7941L23.9458 13.7797L23.0898 13.1475C22.9791 13.0659 23.0361 12.89 23.1739 12.8888L24.2379 12.8807L24.5745 11.8713C24.6181 11.7406 24.8027 11.7406 24.8463 11.8713Z" fill="#F7F7F7"/>
<path d="M24.8463 17.1516L25.1829 18.161L26.2469 18.1691C26.3847 18.1703 26.4417 18.3458 26.3309 18.4278L25.475 19.06L25.7961 20.0744C25.8378 20.2056 25.6881 20.3145 25.576 20.2342L24.7104 19.6155L23.8448 20.2342C23.7327 20.3143 23.5833 20.2056 23.6247 20.0744L23.9458 19.06L23.0898 18.4278C22.9791 18.3458 23.0361 18.1703 23.1739 18.1691L24.2379 18.161L24.5745 17.1516C24.6181 17.0208 24.8027 17.0208 24.8463 17.1516Z" fill="#F7F7F7"/>
<path d="M24.8463 22.4318L25.1829 23.4413L26.2469 23.4494C26.3847 23.4506 26.4417 23.6261 26.3309 23.7081L25.475 24.3402L25.7961 25.3546C25.8378 25.4859 25.6881 25.5948 25.576 25.5145L24.7104 24.8958L23.8448 25.5145C23.7327 25.5948 23.5833 25.4859 23.6247 25.3546L23.9458 24.3402L23.0898 23.7081C22.9791 23.6261 23.0361 23.4506 23.1739 23.4494L24.2379 23.4413L24.5745 22.4318C24.6181 22.3013 24.8027 22.3013 24.8463 22.4318Z" fill="#F7F7F7"/>
<path d="M28.9448 4.00211L29.2814 5.01151L30.3454 5.01961C30.4832 5.02081 30.5402 5.19651 30.4295 5.27833L29.5735 5.91033L29.8946 6.92473C29.9363 7.05599 29.7866 7.16485 29.6745 7.08458L28.8089 6.46585L27.9433 7.08458C27.8312 7.16485 27.6818 7.05599 27.7232 6.92473L28.0443 5.91033L27.1883 5.27833C27.0776 5.19634 27.1346 5.02064 27.2724 5.01961L28.3364 5.01151L28.673 4.00211C28.7162 3.87137 28.9012 3.87137 28.9448 4.00211Z" fill="#F7F7F7"/>
<path d="M28.9448 9.28237L29.2814 10.2918L30.3454 10.2999C30.4832 10.3011 30.5402 10.4766 30.4295 10.5586L29.5735 11.1908L29.8946 12.2052C29.9363 12.3364 29.7866 12.4453 29.6745 12.365L28.8089 11.7463L27.9433 12.365C27.8312 12.4451 27.6818 12.3364 27.7232 12.2052L28.0443 11.1908L27.1883 10.5586C27.0776 10.4766 27.1346 10.3011 27.2724 10.2999L28.3364 10.2918L28.673 9.28237C28.7162 9.15181 28.9012 9.15181 28.9448 9.28237Z" fill="#F7F7F7"/>
<path d="M28.9448 14.5628L29.2814 15.5722L30.3454 15.5803C30.4832 15.5815 30.5402 15.757 30.4295 15.839L29.5735 16.4712L29.8946 17.4856C29.9363 17.6168 29.7866 17.7257 29.6745 17.6454L28.8089 17.0267L27.9433 17.6454C27.8312 17.7255 27.6818 17.617 27.7232 17.4856L28.0443 16.4712L27.1883 15.839C27.0776 15.757 27.1346 15.5815 27.2724 15.5803L28.3364 15.5722L28.673 14.5628C28.7162 14.432 28.9012 14.432 28.9448 14.5628Z" fill="#F7F7F7"/>
<path d="M28.9448 19.8431L29.2814 20.8525L30.3454 20.8606C30.4832 20.8618 30.5402 21.0375 30.4295 21.1193L29.5735 21.7514L29.8946 22.7658C29.9363 22.8971 29.7866 23.006 29.6745 22.9257L28.8089 22.307L27.9433 22.9257C27.8312 23.0058 27.6818 22.8971 27.7232 22.7658L28.0443 21.7514L27.1883 21.1193C27.0776 21.0376 27.1346 20.8618 27.2724 20.8606L28.3364 20.8525L28.673 19.8431C28.7162 19.7123 28.9012 19.7123 28.9448 19.8431Z" fill="#F7F7F7"/>
<path d="M28.9448 25.1233L29.2814 26.1327L30.3454 26.1408C30.4832 26.142 30.5402 26.3175 30.4295 26.3995L29.5735 27.0317L29.8946 28.0461C29.9363 28.1774 29.7866 28.2862 29.6745 28.206L28.8089 27.5872L27.9433 28.206C27.8312 28.2861 27.6818 28.1774 27.7232 28.0461L28.0443 27.0317L27.1883 26.3995C27.0776 26.3175 27.1346 26.142 27.2724 26.1408L28.3364 26.1327L28.673 25.1233C28.7162 24.9927 28.9012 24.9927 28.9448 25.1233Z" fill="#F7F7F7"/>
<path d="M33.0432 6.59091L33.3798 7.60031L34.4438 7.60841C34.5816 7.60962 34.6386 7.78531 34.5278 7.86713L33.6719 8.4993L33.993 9.5137C34.0347 9.64496 33.885 9.75383 33.7729 9.67356L32.9073 9.05482L32.0417 9.67356C31.9296 9.75365 31.7802 9.64496 31.8216 9.5137L32.1427 8.4993L31.2867 7.86713C31.176 7.78514 31.233 7.60962 31.3708 7.60841L32.4348 7.60031L32.7714 6.59091C32.8148 6.46034 32.9996 6.46034 33.0432 6.59091Z" fill="#F7F7F7"/>
<path d="M33.0432 11.8713L33.3798 12.8807L34.4438 12.8888C34.5816 12.89 34.6386 13.0657 34.5278 13.1475L33.6719 13.7797L33.993 14.7941C34.0347 14.9254 33.885 15.0342 33.7729 14.954L32.9073 14.3352L32.0417 14.954C31.9296 15.0341 31.7802 14.9255 31.8216 14.7941L32.1427 13.7797L31.2867 13.1475C31.176 13.0659 31.233 12.89 31.3708 12.8888L32.4348 12.8807L32.7714 11.8713C32.8148 11.7406 32.9996 11.7406 33.0432 11.8713Z" fill="#F7F7F7"/>
<path d="M33.0432 17.1516L33.3798 18.161L34.4438 18.1691C34.5816 18.1703 34.6386 18.3458 34.5278 18.4278L33.6719 19.06L33.993 20.0744C34.0347 20.2056 33.885 20.3145 33.7729 20.2342L32.9073 19.6155L32.0417 20.2342C31.9296 20.3143 31.7802 20.2056 31.8216 20.0744L32.1427 19.06L31.2867 18.4278C31.176 18.3458 31.233 18.1703 31.3708 18.1691L32.4348 18.161L32.7714 17.1516C32.8148 17.0208 32.9996 17.0208 33.0432 17.1516Z" fill="#F7F7F7"/>
<path d="M33.0432 22.4318L33.3798 23.4413L34.4438 23.4494C34.5816 23.4506 34.6386 23.6261 34.5278 23.7081L33.6719 24.3402L33.993 25.3546C34.0347 25.4859 33.885 25.5948 33.7729 25.5145L32.9073 24.8958L32.0417 25.5145C31.9296 25.5948 31.7802 25.4859 31.8216 25.3546L32.1427 24.3402L31.2867 23.7081C31.176 23.6261 31.233 23.4506 31.3708 23.4494L32.4348 23.4413L32.7714 22.4318C32.8148 22.3013 32.9996 22.3013 33.0432 22.4318Z" fill="#F7F7F7"/>
<path d="M37.1418 4.00211L37.4784 5.01151L38.5424 5.01961C38.6802 5.02081 38.7372 5.19651 38.6265 5.27833L37.7706 5.91033L38.0916 6.92473C38.1333 7.05599 37.9836 7.16485 37.8715 7.08458L37.0059 6.46585L36.1403 7.08458C36.0282 7.16485 35.8789 7.05599 35.9202 6.92473L36.2413 5.91033L35.3854 5.27833C35.2746 5.19634 35.3316 5.02064 35.4694 5.01961L36.5334 5.01151L36.87 4.00211C36.9134 3.87137 37.0981 3.87137 37.1418 4.00211Z" fill="#F7F7F7"/>
<path d="M37.1418 9.28237L37.4784 10.2918L38.5424 10.2999C38.6802 10.3011 38.7372 10.4766 38.6265 10.5586L37.7706 11.1908L38.0916 12.2052C38.1333 12.3364 37.9836 12.4453 37.8715 12.365L37.0059 11.7463L36.1403 12.365C36.0282 12.4451 35.8789 12.3364 35.9202 12.2052L36.2413 11.1908L35.3854 10.5586C35.2746 10.4766 35.3316 10.3011 35.4694 10.2999L36.5334 10.2918L36.87 9.28237C36.9134 9.15181 37.0981 9.15181 37.1418 9.28237Z" fill="#F7F7F7"/>
<path d="M37.1418 14.5628L37.4784 15.5722L38.5424 15.5803C38.6802 15.5815 38.7372 15.757 38.6265 15.839L37.7706 16.4712L38.0916 17.4856C38.1333 17.6168 37.9836 17.7257 37.8715 17.6454L37.0059 17.0267L36.1403 17.6454C36.0282 17.7255 35.8789 17.617 35.9202 17.4856L36.2413 16.4712L35.3854 15.839C35.2746 15.757 35.3316 15.5815 35.4694 15.5803L36.5334 15.5722L36.87 14.5628C36.9134 14.432 37.0981 14.432 37.1418 14.5628Z" fill="#F7F7F7"/>
<path d="M37.1418 19.8431L37.4784 20.8525L38.5424 20.8606C38.6802 20.8618 38.7372 21.0375 38.6265 21.1193L37.7706 21.7514L38.0916 22.7658C38.1333 22.8971 37.9836 23.006 37.8715 22.9257L37.0059 22.307L36.1403 22.9257C36.0282 23.0058 35.8789 22.8971 35.9202 22.7658L36.2413 21.7514L35.3854 21.1193C35.2746 21.0376 35.3316 20.8618 35.4694 20.8606L36.5334 20.8525L36.87 19.8431C36.9134 19.7123 37.0981 19.7123 37.1418 19.8431Z" fill="#F7F7F7"/>
<path d="M37.1418 25.1233L37.4784 26.1327L38.5424 26.1408C38.6802 26.142 38.7372 26.3175 38.6265 26.3995L37.7706 27.0317L38.0916 28.0461C38.1333 28.1774 37.9836 28.2862 37.8715 28.206L37.0059 27.5872L36.1403 28.206C36.0282 28.2861 35.8789 28.1774 35.9202 28.0461L36.2413 27.0317L35.3854 26.3995C35.2746 26.3175 35.3316 26.142 35.4694 26.1408L36.5334 26.1327L36.87 25.1233C36.9134 24.9927 37.0981 24.9927 37.1418 25.1233Z" fill="#F7F7F7"/>
</g>
<defs>
<clipPath id="clip0_3_162">
<rect width="89" height="59" fill="white"/>
</clipPath>
</defs>
</svg>
