<svg width="89" height="59" viewBox="0 0 89 59" fill="none" xmlns="http://www.w3.org/2000/svg">
<g clip-path="url(#clip0_3_124)">
<path d="M81.5887 0.511841H6.60506C2.95708 0.511841 0 3.46892 0 7.1169V51.6892C0 55.337 2.95708 58.2943 6.60506 58.2943H81.5887C85.2365 58.2943 88.1938 55.3372 88.1938 51.6892V7.1169C88.1938 3.46892 85.2367 0.511841 81.5887 0.511841Z" fill="#F7F7F7"/>
<path d="M52.5389 16.7478C45.5518 12.0898 36.1145 13.9942 31.4596 20.9691C29.1247 24.4505 30.0738 29.1811 33.5671 31.5101C37.0578 33.8392 41.7732 32.8933 44.1023 29.3997C46.4313 25.9062 51.1499 24.9721 54.6404 27.2889C58.1368 29.6179 59.0771 34.3485 56.7448 37.8299C61.4029 30.8435 59.52 21.4061 52.5389 16.7478Z" fill="#FF4B55"/>
<path d="M31.4594 20.9692C29.1245 24.4507 30.0736 29.1813 33.5669 31.5103C37.0576 33.8393 41.7731 32.8935 44.1021 29.3998C46.4312 25.9064 51.1497 24.9722 54.6402 27.289C58.1366 29.6181 59.077 34.3487 56.7447 37.8301C52.0928 44.8291 42.6586 46.7096 35.6715 42.0515C28.6908 37.394 26.8015 27.9565 31.4594 20.9692Z" fill="#41479B"/>
<path d="M60.2749 11.0046L63.037 15.1563C63.269 15.5051 63.1752 15.976 62.827 16.2091L62.1267 16.6781C61.7771 16.912 61.3041 16.818 61.0709 16.468L58.3054 12.3173C58.0727 11.9682 58.1671 11.4964 58.516 11.2633L59.2199 10.7934C59.5695 10.56 60.042 10.6548 60.2749 11.0046Z" fill="#464655"/>
<path d="M64.5365 17.4057L67.3076 21.5547C67.5415 21.9051 67.4461 22.3791 67.0945 22.6113L66.391 23.0763C66.042 23.3071 65.5721 23.2122 65.3397 22.8644L62.5703 18.7196C62.337 18.3706 62.4307 17.8985 62.7799 17.6651L63.4818 17.1959C63.8308 16.9625 64.3031 17.0563 64.5365 17.4057Z" fill="#464655"/>
<path d="M63.2324 9.03089L70.2653 19.5854C70.4982 19.9347 70.4036 20.4067 70.0543 20.6396L69.3477 21.1105C68.9984 21.3434 68.5262 21.249 68.2934 20.8997L61.258 10.3459C61.025 9.99637 61.1197 9.52405 61.4694 9.29116L62.1782 8.81936C62.5277 8.58734 62.9995 8.68156 63.2324 9.03089Z" fill="#464655"/>
<path d="M66.1817 7.06031L68.9498 11.2201C69.183 11.5704 69.0872 12.0434 68.736 12.2755L68.032 12.7405C67.6827 12.9714 67.2126 12.8765 66.9804 12.528L64.2102 8.37375C63.9772 8.02442 64.0717 7.55227 64.4211 7.31921L65.1271 6.84861C65.4765 6.61573 65.9488 6.71029 66.1817 7.06031Z" fill="#464655"/>
<path d="M70.4459 13.475L73.2098 17.6262C73.4423 17.9752 73.3481 18.4465 72.9996 18.6795L72.2977 19.1487C71.9482 19.3823 71.4752 19.2881 71.2423 18.9381L68.4785 14.7869C68.2461 14.4379 68.3402 13.9667 68.6886 13.7336L69.3905 13.2644C69.7402 13.0306 70.2129 13.1247 70.4459 13.475Z" fill="#464655"/>
<path d="M22.8617 35.9457L29.8938 46.4888C30.1267 46.8379 30.0326 47.3099 29.6833 47.543L28.9791 48.0132C28.6298 48.2465 28.1576 48.1522 27.9244 47.8027L20.8923 37.2596C20.6593 36.9105 20.7535 36.4385 21.1028 36.2054L21.8072 35.7352C22.1563 35.5019 22.6287 35.5962 22.8617 35.9457Z" fill="#464655"/>
<path d="M19.9094 37.9176L22.6703 42.0588C22.903 42.4078 22.8091 42.8789 22.4606 43.1123L21.7602 43.5812C21.4111 43.8149 20.9384 43.721 20.705 43.3715L17.9409 39.2314C17.7076 38.8823 17.8017 38.4101 18.151 38.1769L18.8548 37.707C19.204 37.4739 19.6763 37.5681 19.9094 37.9176Z" fill="#464655"/>
<path d="M24.176 44.321L26.9399 48.4726C27.1725 48.8216 27.0783 49.2931 26.7294 49.526L26.027 49.9957C25.6775 50.2293 25.205 50.1351 24.9718 49.7852L22.2061 45.6344C21.9734 45.2853 22.0676 44.8135 22.4166 44.5806L23.1207 44.1103C23.4704 43.8766 23.9429 43.9711 24.176 44.321Z" fill="#464655"/>
<path d="M16.9569 39.8891L23.9845 50.4327C24.2173 50.7817 24.123 51.2533 23.7746 51.4866L23.0723 51.9561C22.723 52.1897 22.2505 52.0955 22.0172 51.746L14.9855 41.2037C14.7524 40.8544 14.847 40.3822 15.1963 40.1492L15.9029 39.6782C16.2519 39.4453 16.7241 39.5397 16.9569 39.8891Z" fill="#464655"/>
<path d="M20.8934 21.5554L27.9244 11.0037C28.1575 10.654 28.6298 10.5596 28.9793 10.7929L29.6833 11.2629C30.0324 11.496 30.1265 11.968 29.8938 12.3171L22.86 22.863C22.6274 23.2115 22.157 23.3062 21.8078 23.075L21.1066 22.6108C20.7555 22.3786 20.6601 21.9054 20.8934 21.5554Z" fill="#464655"/>
<path d="M17.9397 19.5861L24.972 9.03229C25.205 8.68262 25.6777 8.58822 26.0272 8.8218L26.7295 9.29136C27.0781 9.52442 27.1722 9.99588 26.9396 10.3449L19.9093 20.8992C19.6762 21.2489 19.2039 21.3434 18.8544 21.11L18.1502 20.6399C17.8012 20.4071 17.707 19.9352 17.9397 19.5861Z" fill="#464655"/>
<path d="M14.9843 17.6252L22.0172 7.06089C22.2503 6.71105 22.7231 6.61648 23.0726 6.85006L23.7749 7.31962C24.1234 7.55268 24.2176 8.02362 23.9854 8.37278L16.9568 18.9386C16.7241 19.2883 16.2516 19.3832 15.9021 19.1502L15.1958 18.6792C14.8463 18.4463 14.7519 17.9745 14.9843 17.6252Z" fill="#464655"/>
<path d="M58.3066 46.4886L61.0708 42.3485C61.3042 41.999 61.7768 41.9051 62.126 42.1389L62.8264 42.6077C63.1748 42.841 63.2685 43.3123 63.0358 43.6612L60.2749 47.8022C60.0419 48.1517 59.5696 48.2461 59.2202 48.0129L58.5164 47.543C58.1674 47.3099 58.0734 46.8379 58.3066 46.4886Z" fill="#464655"/>
<path d="M62.5699 40.1071L65.3385 35.9465C65.5712 35.5969 66.0437 35.5021 66.3932 35.7352L67.0988 36.2054C67.4483 36.4385 67.5427 36.911 67.3094 37.2603L64.5349 41.4144C64.3022 41.7627 63.8318 41.8572 63.4826 41.6257L62.783 41.162C62.4324 40.9295 62.337 40.457 62.5699 40.1071Z" fill="#464655"/>
<path d="M61.2578 48.4712L64.0237 44.3203C64.2565 43.9708 64.7287 43.8762 65.0782 44.1093L65.7851 44.5807C66.1343 44.8136 66.2287 45.2852 65.9961 45.6347L63.232 49.7861C62.9993 50.1356 62.5275 50.2303 62.1778 49.9976L61.469 49.5258C61.1196 49.2931 61.0249 48.8207 61.2578 48.4712Z" fill="#464655"/>
<path d="M65.5258 42.0574L68.2932 37.9161C68.5264 37.5673 68.9981 37.4732 69.3472 37.7059L70.0538 38.1769C70.4035 38.4099 70.4977 38.8824 70.2641 39.2319L67.4967 43.3734C67.2636 43.7222 66.7918 43.8163 66.4428 43.5836L65.7361 43.1126C65.3864 42.8794 65.2922 42.4069 65.5258 42.0574Z" fill="#464655"/>
<path d="M64.2111 50.432L66.98 46.2883C67.2126 45.9405 67.6823 45.8458 68.0313 46.0764L68.7351 46.5415C69.0865 46.7737 69.1821 47.2472 68.9486 47.5976L66.1817 51.7468C65.9488 52.0962 65.4766 52.1904 65.1273 51.9577L64.4214 51.4871C64.0717 51.2538 63.9775 50.7814 64.2111 50.432Z" fill="#464655"/>
<path d="M68.4801 44.0393L71.2422 39.8906C71.4753 39.5408 71.9481 39.4462 72.2976 39.68L72.999 40.1488C73.3478 40.3821 73.4417 40.8539 73.2088 41.2029L70.4443 45.3461C70.212 45.6947 69.741 45.7893 69.3918 45.5578L68.6925 45.0944C68.3423 44.862 68.2471 44.3892 68.4801 44.0393Z" fill="#464655"/>
</g>
<defs>
<clipPath id="clip0_3_124">
<rect width="89" height="59" fill="white"/>
</clipPath>
</defs>
</svg>
