<svg width="12" height="8" viewBox="0 0 12 8" fill="none" xmlns="http://www.w3.org/2000/svg">
<g id="Frame 1171278657">
<path id="Vector" d="M4.26197 6.2539L10.2907 0.213809C10.433 0.0712696 10.599 0 10.7886 0C10.9783 0 11.1443 0.0712696 11.2866 0.213809C11.4289 0.356348 11.5 0.525731 11.5 0.72196C11.5 0.918189 11.4289 1.08733 11.2866 1.2294L4.75992 7.78619C4.61765 7.92873 4.45166 8 4.26197 8C4.07228 8 3.90629 7.92873 3.76402 7.78619L0.705198 4.7216C0.562928 4.57906 0.494637 4.40992 0.500328 4.21416C0.506019 4.01841 0.580237 3.84903 0.722982 3.70601C0.865727 3.563 1.03479 3.49173 1.23018 3.4922C1.42556 3.49268 1.59439 3.56395 1.73666 3.70601L4.26197 6.2539Z" fill="white"/>
</g>
</svg>
