<svg width="26" height="24" viewBox="0 0 26 24" fill="none" xmlns="http://www.w3.org/2000/svg">
<path d="M19.2071 13.3896C18.8673 14.0551 18.5297 14.6461 18.2238 15.1412C21.6047 15.8517 23.5491 17.176 23.5491 18.2169C23.5491 19.7132 19.5359 21.7998 13 21.7998C6.46411 21.7998 2.45092 19.7132 2.45092 18.2169C2.45092 17.1841 4.36387 15.8712 7.69718 15.1557C7.38952 14.6623 7.05038 14.0729 6.70801 13.4099C3.1817 14.2747 0.5 15.8993 0.5 18.2169C0.5 21.8111 6.94055 23.7507 13 23.7507C19.0595 23.7507 25.5 21.8111 25.5 18.2169C25.5 15.8816 22.7747 14.2496 19.2071 13.3896Z" fill="white"/>
<path d="M12.9483 18.5075C14.2452 18.5075 19.3283 11.8037 19.3283 7.23978C19.3283 4.05417 17.8337 0.249298 12.9483 0.249298C8.0622 0.249298 6.56836 4.05417 6.56836 7.23978C6.56836 11.8546 11.7274 18.5075 12.9483 18.5075ZM9.9897 6.53724C9.9897 4.90452 11.3171 3.57779 12.9483 3.57779C14.5795 3.57779 15.907 4.90452 15.907 6.53724C15.907 8.16762 14.5795 9.49506 12.9483 9.49506C11.3171 9.49511 9.9897 8.16762 9.9897 6.53724Z" fill="white"/>
</svg>
