<svg width="22" height="25" viewBox="0 0 22 25" fill="none" xmlns="http://www.w3.org/2000/svg">
<path d="M11.0546 14.9333C10.724 14.9333 10.4469 14.8215 10.2233 14.5979C9.9997 14.3743 9.8879 14.0972 9.8879 13.7667C9.8879 13.4361 9.9997 13.159 10.2233 12.9354C10.4469 12.7118 10.724 12.6 11.0546 12.6C11.3851 12.6 11.6622 12.7118 11.8858 12.9354C12.1094 13.159 12.2212 13.4361 12.2212 13.7667C12.2212 14.0972 12.1094 14.3743 11.8858 14.5979C11.6622 14.8215 11.3851 14.9333 11.0546 14.9333ZM6.3879 14.9333C6.05734 14.9333 5.78026 14.8215 5.55665 14.5979C5.33304 14.3743 5.22123 14.0972 5.22123 13.7667C5.22123 13.4361 5.33304 13.159 5.55665 12.9354C5.78026 12.7118 6.05734 12.6 6.3879 12.6C6.71845 12.6 6.99554 12.7118 7.21915 12.9354C7.44276 13.159 7.55457 13.4361 7.55457 13.7667C7.55457 14.0972 7.44276 14.3743 7.21915 14.5979C6.99554 14.8215 6.71845 14.9333 6.3879 14.9333ZM15.7212 14.9333C15.3907 14.9333 15.1136 14.8215 14.89 14.5979C14.6664 14.3743 14.5546 14.0972 14.5546 13.7667C14.5546 13.4361 14.6664 13.159 14.89 12.9354C15.1136 12.7118 15.3907 12.6 15.7212 12.6C16.0518 12.6 16.3289 12.7118 16.5525 12.9354C16.7761 13.159 16.8879 13.4361 16.8879 13.7667C16.8879 14.0972 16.7761 14.3743 16.5525 14.5979C16.3289 14.8215 16.0518 14.9333 15.7212 14.9333ZM11.0546 19.6C10.724 19.6 10.4469 19.4882 10.2233 19.2646C9.9997 19.041 9.8879 18.7639 9.8879 18.4333C9.8879 18.1028 9.9997 17.8257 10.2233 17.6021C10.4469 17.3785 10.724 17.2667 11.0546 17.2667C11.3851 17.2667 11.6622 17.3785 11.8858 17.6021C12.1094 17.8257 12.2212 18.1028 12.2212 18.4333C12.2212 18.7639 12.1094 19.041 11.8858 19.2646C11.6622 19.4882 11.3851 19.6 11.0546 19.6ZM6.3879 19.6C6.05734 19.6 5.78026 19.4882 5.55665 19.2646C5.33304 19.041 5.22123 18.7639 5.22123 18.4333C5.22123 18.1028 5.33304 17.8257 5.55665 17.6021C5.78026 17.3785 6.05734 17.2667 6.3879 17.2667C6.71845 17.2667 6.99554 17.3785 7.21915 17.6021C7.44276 17.8257 7.55457 18.1028 7.55457 18.4333C7.55457 18.7639 7.44276 19.041 7.21915 19.2646C6.99554 19.4882 6.71845 19.6 6.3879 19.6ZM15.7212 19.6C15.3907 19.6 15.1136 19.4882 14.89 19.2646C14.6664 19.041 14.5546 18.7639 14.5546 18.4333C14.5546 18.1028 14.6664 17.8257 14.89 17.6021C15.1136 17.3785 15.3907 17.2667 15.7212 17.2667C16.0518 17.2667 16.3289 17.3785 16.5525 17.6021C16.7761 17.8257 16.8879 18.1028 16.8879 18.4333C16.8879 18.7639 16.7761 19.041 16.5525 19.2646C16.3289 19.4882 16.0518 19.6 15.7212 19.6ZM2.8879 24.2667C2.24623 24.2667 1.69693 24.0382 1.23998 23.5813C0.783038 23.1243 0.554565 22.575 0.554565 21.9333V5.60002C0.554565 4.95835 0.783038 4.40904 1.23998 3.9521C1.69693 3.49516 2.24623 3.26668 2.8879 3.26668H4.05457V0.93335H6.3879V3.26668H15.7212V0.93335H18.0546V3.26668H19.2212C19.8629 3.26668 20.4122 3.49516 20.8691 3.9521C21.3261 4.40904 21.5546 4.95835 21.5546 5.60002V21.9333C21.5546 22.575 21.3261 23.1243 20.8691 23.5813C20.4122 24.0382 19.8629 24.2667 19.2212 24.2667H2.8879ZM2.8879 21.9333H19.2212V10.2667H2.8879V21.9333Z" fill="white"/>
</svg>
