<svg width="29" height="29" viewBox="0 0 29 29" fill="none" xmlns="http://www.w3.org/2000/svg">
<path d="M22.4254 23.9333H18.7213C18.3907 23.9333 18.1136 23.8215 17.89 23.5979C17.6664 23.3743 17.5546 23.0972 17.5546 22.7667C17.5546 22.4361 17.6664 22.159 17.89 21.9354C18.1136 21.7118 18.3907 21.6 18.7213 21.6H22.4254L21.3754 20.55C21.1421 20.3167 21.0303 20.0444 21.04 19.7333C21.0497 19.4222 21.1713 19.15 21.4046 18.9167C21.6379 18.7028 21.9102 18.591 22.2213 18.5812C22.5324 18.5715 22.8046 18.6833 23.0379 18.9167L26.0713 21.95C26.1879 22.0667 26.2754 22.1931 26.3338 22.3292C26.3921 22.4653 26.4213 22.6111 26.4213 22.7667C26.4213 22.9222 26.3921 23.0681 26.3338 23.2042C26.2754 23.3403 26.1879 23.4667 26.0713 23.5833L23.0379 26.6167C22.8241 26.8306 22.5567 26.9424 22.2359 26.9521C21.915 26.9618 21.6379 26.85 21.4046 26.6167C21.1907 26.4028 21.0838 26.1306 21.0838 25.8C21.0838 25.4694 21.1907 25.1972 21.4046 24.9833L22.4254 23.9333ZM4.72127 23.9333C4.07961 23.9333 3.5303 23.7049 3.07336 23.2479C2.61641 22.791 2.38794 22.2417 2.38794 21.6V7.6C2.38794 6.95833 2.61641 6.40902 3.07336 5.95208C3.5303 5.49513 4.07961 5.26666 4.72127 5.26666H23.3879C24.0296 5.26666 24.5789 5.49513 25.0359 5.95208C25.4928 6.40902 25.7213 6.95833 25.7213 7.6V15.1833C25.7213 15.5333 25.5706 15.8056 25.2692 16C24.9678 16.1944 24.6518 16.2236 24.3213 16.0875C23.9907 15.9903 23.6456 15.9125 23.2859 15.8542C22.9261 15.7958 22.5713 15.7667 22.2213 15.7667C20.2768 15.7667 18.6241 16.4472 17.2629 17.8083C15.9018 19.1694 15.2213 20.8222 15.2213 22.7667C15.2213 23.0972 15.1095 23.3743 14.8859 23.5979C14.6622 23.8215 14.3852 23.9333 14.0546 23.9333H4.72127ZM14.0546 13.4333L6.23794 8.53333C5.90738 8.31944 5.57197 8.30972 5.23169 8.50416C4.89141 8.69861 4.72127 8.99027 4.72127 9.37916C4.72127 9.55416 4.76016 9.71458 4.83794 9.86041C4.91572 10.0062 5.03238 10.1278 5.18794 10.225L13.4421 15.3875C13.6366 15.5042 13.8407 15.5625 14.0546 15.5625C14.2685 15.5625 14.4727 15.5042 14.6671 15.3875L22.9213 10.225C23.0768 10.1278 23.1935 10.0062 23.2713 9.86041C23.3491 9.71458 23.3879 9.55416 23.3879 9.37916C23.3879 8.99027 23.2178 8.69861 22.8775 8.50416C22.5372 8.30972 22.2018 8.31944 21.8713 8.53333L14.0546 13.4333Z" fill="white"/>
</svg>
