<svg width="26" height="24" viewBox="0 0 26 24" fill="none" xmlns="http://www.w3.org/2000/svg">
<path d="M25.2854 5.65916C18.8472 -1.06711 7.14785 -1.0634 0.714547 5.6594C0.491597 5.88206 0.436373 6.22263 0.57734 6.50461L2.14638 9.64265C2.32788 10.0056 2.76845 10.1506 3.129 9.97019L7.83598 7.61672C8.18842 7.4405 8.35546 6.997 8.1561 6.6196C7.87631 6.03376 8.29795 5.34055 8.96176 5.34055H17.0382C17.702 5.34055 18.1237 6.03376 17.8439 6.6196C17.6445 6.997 17.8116 7.4405 18.164 7.61672L22.871 9.97019C23.2315 10.1506 23.6721 10.0056 23.8536 9.64265L25.4227 6.50461C25.5636 6.22263 25.5084 5.88206 25.2854 5.65916Z" fill="white"/>
<path d="M16.0859 8.27659V6.8053H14.6211V7.92761C13.5704 7.75569 12.4295 7.75569 11.3789 7.92761V6.8053H9.91406V8.27659C5.81939 9.58249 2.85352 13.417 2.85352 17.9446V21.0826C2.85352 21.4871 3.18145 21.8151 3.58594 21.8151H4.42251V22.6517C4.42251 23.0562 4.75044 23.3841 5.15493 23.3841C5.55942 23.3841 5.88735 23.0562 5.88735 22.6517V21.8151H20.1126V22.6517C20.1126 23.0562 20.4405 23.3841 20.845 23.3841C21.2495 23.3841 21.5774 23.0562 21.5774 22.6517V21.8151H22.4141C22.8186 21.8151 23.1465 21.4871 23.1465 21.0826V17.9446C23.1465 13.417 20.1806 9.58249 16.0859 8.27659ZM13 18.677C10.8658 18.677 9.12954 16.9407 9.12954 14.8066C9.32412 9.67893 16.6767 9.68035 16.8704 14.8066C16.8705 16.9407 15.1342 18.677 13 18.677Z" fill="white"/>
<path d="M13 12.401C11.6735 12.401 10.5944 13.4802 10.5944 14.8066C10.7153 17.9936 15.2851 17.9927 15.4055 14.8066C15.4056 13.4801 14.3264 12.401 13 12.401Z" fill="white"/>
</svg>
