<svg width="9" height="5" viewBox="0 0 9 5" fill="none" xmlns="http://www.w3.org/2000/svg">
<path d="M8.47022 0.230948C8.32216 0.0830646 8.12144 -7.40435e-09 7.91217 -1.00772e-08C7.7029 -1.275e-08 7.50219 0.0830645 7.35412 0.230948L4.49017 3.0949L1.62622 0.230948C1.47652 0.0914568 1.27852 0.0155167 1.07394 0.0191263C0.869351 0.022736 0.674154 0.105614 0.529469 0.250299C0.384784 0.394985 0.301905 0.590181 0.298295 0.794765C0.294685 0.99935 0.370626 1.19735 0.510119 1.34705L3.93212 4.76905C4.08019 4.91694 4.2809 5 4.49017 5C4.69944 5 4.90015 4.91694 5.04822 4.76905L8.47022 1.34705C8.61811 1.19898 8.70117 0.998268 8.70117 0.788998C8.70117 0.579729 8.61811 0.379016 8.47022 0.230948Z" fill="#474747"/>
</svg>
