<svg width="70" height="71" viewBox="0 0 70 71" fill="none" xmlns="http://www.w3.org/2000/svg">
<rect y="0.102539" width="70" height="70" rx="35" fill="#303030"/>
<path d="M51.2515 29.8318L48.7171 22.2285C48.3495 21.1215 47.6422 20.1585 46.6961 19.4764C45.7499 18.7943 44.6128 18.4277 43.4463 18.4287H26.5539C25.3874 18.4277 24.2503 18.7943 23.3041 19.4764C22.3579 20.1585 21.6508 21.1215 21.2831 22.2285L18.7487 29.8318C18.0747 30.1137 17.4992 30.5887 17.0944 31.1968C16.6896 31.805 16.4736 32.5194 16.4736 33.2499V42.5131C16.4736 43.8804 17.2221 45.0624 18.3263 45.7052V49.9237C18.3263 50.415 18.5215 50.8864 18.8689 51.2337C19.2163 51.5811 19.6876 51.7764 20.1789 51.7764H22.0316C22.5229 51.7764 22.9942 51.5811 23.3416 51.2337C23.689 50.8864 23.8842 50.415 23.8842 49.9237V46.2184H46.116V49.9237C46.116 50.415 46.3113 50.8864 46.6586 51.2337C47.006 51.5811 47.4773 51.7764 47.9686 51.7764H49.8213C50.3126 51.7764 50.7839 51.5811 51.1313 51.2337C51.4787 50.8864 51.6739 50.415 51.6739 49.9237V45.7052C52.236 45.3829 52.7033 44.9181 53.0284 44.3576C53.3537 43.7974 53.5255 43.161 53.5266 42.5131V33.2499C53.5266 32.5194 53.3106 31.805 52.9058 31.1968C52.501 30.5887 51.9255 30.1137 51.2515 29.8318ZM26.5539 22.134H43.4445C44.243 22.134 44.9507 22.6416 45.2026 23.4012L47.2517 29.5446H22.7485L24.7957 23.4012C24.9186 23.0322 25.1546 22.7112 25.4702 22.4837C25.7857 22.2563 26.1649 22.1339 26.5539 22.134ZM22.9579 40.6605C22.5928 40.6603 22.2314 40.5884 21.8941 40.4485C21.5569 40.3087 21.2505 40.1038 20.9925 39.8457C20.7344 39.5874 20.5298 39.2808 20.3902 38.9436C20.2506 38.6063 20.1788 38.2446 20.1789 37.8797C20.1791 37.5147 20.2511 37.153 20.3909 36.8159C20.5307 36.4787 20.7356 36.1723 20.9938 35.9142C21.252 35.6561 21.5585 35.4516 21.8959 35.3119C22.2332 35.1724 22.5947 35.1005 22.9598 35.1007C23.697 35.1009 24.404 35.394 24.9252 35.9155C25.4463 36.437 25.739 37.1442 25.7387 37.8815C25.7385 38.6189 25.4454 39.3258 24.9239 39.847C24.4024 40.3681 23.6952 40.6607 22.9579 40.6605ZM47.0423 40.6605C46.6773 40.6603 46.3157 40.5884 45.9785 40.4485C45.6413 40.3087 45.3349 40.1038 45.0768 39.8457C44.8188 39.5874 44.6142 39.2808 44.4745 38.9436C44.335 38.6063 44.2632 38.2446 44.2633 37.8797C44.2635 37.5147 44.3354 37.153 44.4753 36.8159C44.6152 36.4787 44.8201 36.1723 45.0781 35.9142C45.3364 35.6561 45.643 35.4516 45.9802 35.3119C46.3176 35.1724 46.6792 35.1005 47.0442 35.1007C47.7815 35.1009 48.4885 35.394 49.0096 35.9155C49.5308 36.437 49.8233 37.1442 49.8231 37.8815C49.823 38.6189 49.5299 39.3258 49.0083 39.847C48.4868 40.3681 47.7797 40.6607 47.0423 40.6605Z" fill="white"/>
</svg>
