<svg width="182" height="100" viewBox="0 0 182 100" fill="none" xmlns="http://www.w3.org/2000/svg">
<g clip-path="url(#clip0_2_160)">
<path d="M22.4635 72.2127C24.3342 71.0734 27.6539 67.6654 27.7853 65.432C27.7912 65.3183 27.7284 65.2006 27.7343 65.0869C28.9226 63.0751 28.4559 60.6161 27.1519 58.8376C25.2107 56.1924 21.7498 57.2062 19.4222 58.9376C16.8986 59.4749 15.5142 60.4514 12.7769 59.2278C12.3337 58.1788 12.1494 57.2866 11.6258 56.2316C8.76101 50.4726 0.901878 54.3414 0.976391 60.1436C1.03522 64.7202 2.64508 67.6007 6.006 70.4499C10.9297 74.6206 16.675 75.7383 22.4615 72.2127H22.4635Z" fill="#3276A1"/>
<path d="M33.8012 81.1169C33.6992 81.0208 33.4973 80.9757 33.3659 80.8855C28.3363 77.4893 26.246 84.9347 21.9968 85.8171C18.0065 86.6465 18.4614 82.1111 14.7456 82.1111C12.0945 82.1111 10.6729 83.0836 9.58457 85.2759C6.47465 91.5467 12.1984 97.2607 17.8437 99.1274C19.4457 99.6568 20.3575 99.9745 22.1184 100C25.0303 99.7902 27.5814 99.0058 29.7736 97.6489C31.8796 96.3606 33.66 93.9801 34.8699 91.7134C37.0504 89.0133 36.3346 83.4797 33.8012 81.1169Z" fill="#3276A1"/>
<path d="M30.8168 24.8167C35.6621 26.8462 43.9761 26.8148 46.0429 20.9303C48.1057 15.0536 39.8563 15.1987 37.319 11.8848C34.8169 8.61607 38.2033 7.74937 37.9425 4.58258C37.5288 -0.445065 29.3501 -1.62943 26.9009 2.50603C26.595 2.72369 26.5382 2.90605 26.3637 3.07076C20.3713 8.76118 23.1439 21.6029 30.8168 24.8187V24.8167Z" fill="#3276A1"/>
<path d="M12.4886 44.4273C16.2515 46.7587 23.2243 47.4843 26.6696 44.2135C29.5854 42.9115 32.4208 38.8702 30.6207 35.8054C28.3245 31.8993 21.687 34.4524 18.4692 31.0464C18.5437 30.5228 18.6143 30.6659 18.2751 30.2914C18.1947 28.0541 19.6359 27.1207 18.3967 24.7932C16.4633 21.1617 11.1278 21.195 8.51394 24.0167C5.22362 27.5717 5.33146 32.8092 6.8374 37.0838C7.8198 39.8742 9.91792 42.8311 12.4886 44.4234V44.4273Z" fill="#3276A1"/>
<path d="M37.5778 57.3572C32.2757 57.2768 32.3227 64.8849 37.1347 65.0085C42.6623 65.1516 42.2682 57.4278 37.5778 57.3572Z" fill="#31A8DD"/>
<path d="M37.268 47.4862C42.3388 49.549 44.8546 42.2468 40.3838 40.4839C35.6405 38.6133 32.6874 45.6234 37.268 47.4862Z" fill="#31A8DD"/>
<path d="M52.7412 25.4245C48.0449 23.7009 44.7467 31.7169 51.2823 32.9111C55.2805 33.6405 57.2257 27.0716 52.7412 25.4245Z" fill="#31A8DD"/>
<path d="M43.0682 75.4246C38.4857 75.9363 38.9073 83.5014 43.433 83.1778C49.6293 82.7366 47.7939 74.8951 43.0682 75.4246Z" fill="#31A8DD"/>
<path d="M82.3325 36.5643H91.5388V44.4155H94.8663V36.5643H104.22V33.8289H82.3325V36.5643Z" fill="black"/>
<path d="M88.6779 31.3542C89.9975 31.7935 91.5074 32.0111 93.2094 32.0111C94.9114 32.0111 96.435 31.7915 97.7547 31.3542C99.0743 30.915 100.1 30.2934 100.833 29.4875C101.565 28.6816 101.931 27.7462 101.931 26.6854C101.931 25.6246 101.565 24.6187 100.833 23.799C100.102 22.9794 99.0743 22.348 97.7547 21.9048C96.435 21.4617 94.9193 21.2401 93.2094 21.2401C91.4995 21.2401 89.9975 21.4617 88.6779 21.9048C87.3582 22.348 86.3346 22.9794 85.6072 23.799C84.8797 24.6187 84.515 25.5815 84.515 26.6854C84.515 27.7894 84.8777 28.6796 85.6072 29.4875C86.3346 30.2934 87.3582 30.917 88.6779 31.3542ZM88.6132 25.1795C89.0289 24.7638 89.6328 24.45 90.4211 24.2383C91.2113 24.0285 92.1388 23.9226 93.2094 23.9226C94.28 23.9226 95.2232 24.0285 96.0174 24.2383C96.8115 24.4481 97.4174 24.7618 97.839 25.1795C98.2606 25.5952 98.4704 26.0991 98.4704 26.6854C98.4704 27.2717 98.2606 27.7286 97.839 28.1325C97.4174 28.5365 96.8135 28.8404 96.0232 29.0463C95.235 29.2522 94.2957 29.36 93.2094 29.3679C92.1388 29.36 91.2093 29.2522 90.4211 29.0463C89.6328 28.8404 89.0289 28.5365 88.6132 28.1325C88.1974 27.7286 87.9876 27.2462 87.9876 26.6854C87.9876 26.1246 88.1955 25.5952 88.6132 25.1795Z" fill="black"/>
<path d="M128.393 20.4243H125.038V44.4547H128.393V20.4243Z" fill="black"/>
<path d="M117.54 29.0404H109.608V38.8388H111.751C114.171 38.8388 116.295 38.78 118.124 38.6604C119.952 38.5427 121.787 38.3212 123.628 37.9957L123.326 35.2858C121.467 35.5838 119.634 35.7917 117.828 35.9113C116.383 36.0054 114.793 36.0603 113.067 36.0721V31.668H120.96V22.448H109.583V25.1579H117.54V29.0385V29.0404Z" fill="black"/>
<path d="M156.181 29.8031H134.307V32.4346H156.181V29.8031Z" fill="black"/>
<path d="M153.473 40.0879V33.8406H136.821V36.3662H150.157V37.7074H136.833V41.5879V42.2468V44.192H154.104V41.5879H140.135V40.0879H153.473Z" fill="black"/>
<path d="M153.565 25.8305H140.372V23.5951H153.392V20.9381H137.017V25.8305V28.0796V28.4737H153.565V25.8305Z" fill="black"/>
<path d="M63.571 62.5632C64.0632 63.4632 64.7181 64.2652 65.5377 64.9633C66.5633 65.8359 67.8222 66.483 69.3124 66.9026L70.8125 64.2593C69.5673 63.9083 68.5261 63.4142 67.6888 62.773C66.8515 62.1338 66.224 61.4043 65.8083 60.5906C65.3926 59.7749 65.1828 58.9297 65.1828 58.0513V57.9454H70.0105V55.3021H65.2221V52.6707H61.8552V55.3021H57.0276V57.9454H61.8552V58.0513C61.8552 58.9984 61.6513 59.9082 61.2435 60.7808C60.8356 61.6534 60.2062 62.4299 59.3552 63.1083C58.5041 63.7887 57.457 64.3084 56.2119 64.6672L57.8041 67.2712C59.2865 66.8418 60.5317 66.1731 61.5395 65.2653C62.4062 64.4848 63.0827 63.5828 63.571 62.5632Z" fill="black"/>
<path d="M73.2067 59.2729H69.13V62.0103H73.2067V67.2968H76.548V52.7491H73.2067V59.2729Z" fill="black"/>
<path d="M60.1062 71.0067H73.2067V76.7403H76.548V68.2831H60.1062V71.0067Z" fill="black"/>
<path d="M87.8641 62.0221C86.6405 62.6104 85.1699 63.0084 83.4522 63.2182L84.6758 65.836C86.719 65.5811 88.4818 65.0654 89.9622 64.283C91.3917 63.53 92.4898 62.6064 93.2624 61.5142C94.033 62.5927 95.1213 63.5124 96.5311 64.2693C98.0175 65.0673 99.7724 65.5889 101.798 65.834L103.008 63.2163C101.306 63.0065 99.845 62.6025 98.6214 62.0064C97.3978 61.4103 96.4782 60.726 95.8586 59.9554C95.3801 59.3593 95.0899 58.7632 94.982 58.1671H102.178V55.5238H94.8918V52.8002H91.5643V55.5238H84.3306V58.1671H91.5152C91.4074 58.7769 91.1133 59.3828 90.6309 59.9828C90.0093 60.7554 89.0857 61.4338 87.8622 62.0221H87.8641Z" fill="black"/>
<path d="M82.358 69.8479H91.5662V76.7403H94.8938V69.8479H104.192V67.1007H82.358V69.8479Z" fill="black"/>
<path d="M115.712 68.5732H112.318V73.597V75.0304V76.3069H129.011V73.597H115.712V68.5732Z" fill="black"/>
<path d="M115.763 61.6103C116.244 62.6417 116.879 63.5593 117.679 64.3574C118.673 65.3535 119.912 66.1006 121.395 66.6006L123.105 63.9437C121.85 63.5319 120.801 62.9397 119.954 62.1671C119.107 61.3965 118.487 60.5161 118.093 59.5298C117.699 58.5435 117.501 57.5062 117.501 56.4199V54.1178H114.014V56.4199C114.014 57.5415 113.808 58.6258 113.396 59.669C112.985 60.7122 112.344 61.6495 111.477 62.4769C110.608 63.3064 109.526 63.9358 108.228 64.3653L109.963 67.0085C111.453 66.4908 112.71 65.7026 113.732 64.6417C114.589 63.7535 115.263 62.7417 115.761 61.6122L115.763 61.6103Z" fill="black"/>
<path d="M128.354 52.8021H124.999V70.2832H128.354V52.8021Z" fill="black"/>
<path d="M145.594 60.1279C145.729 59.8554 145.849 59.573 145.962 59.2867H151.131V61.5613H145.751V64.2575H151.131V66.585H154.473V52.8002H151.131V56.6415H146.666C146.774 55.9238 146.831 55.1748 146.831 54.3924H135.782V57.1023H143.172C143.045 57.967 142.764 58.7828 142.325 59.5495C141.707 60.6279 140.749 61.5848 139.45 62.4162C138.152 63.2496 136.503 63.9281 134.505 64.4555L135.821 67.0988C138.25 66.4321 140.28 65.5203 141.911 64.3634C143.543 63.2065 144.77 61.7946 145.594 60.1279Z" fill="black"/>
<path d="M150.769 67.4753C149.537 67.0772 148.11 66.8772 146.488 66.8772C144.866 66.8772 143.439 67.0772 142.207 67.4753C140.976 67.8753 140.019 68.4361 139.341 69.1596C138.66 69.8832 138.321 70.7401 138.321 71.7303C138.321 72.7206 138.66 73.5735 139.341 74.3147C140.019 75.0559 140.976 75.6226 142.207 76.0187C143.439 76.4129 144.866 76.6109 146.488 76.6109C148.11 76.6109 149.537 76.4129 150.769 76.0187C152 75.6246 152.955 75.0559 153.629 74.3147C154.304 73.5735 154.643 72.7127 154.643 71.7303C154.643 70.7479 154.306 69.8832 153.629 69.1596C152.955 68.4361 152 67.8753 150.769 67.4753ZM150.716 72.9539C150.333 73.2873 149.786 73.5363 149.072 73.703C148.357 73.8696 147.496 73.952 146.488 73.952C145.48 73.952 144.602 73.8696 143.884 73.703C143.164 73.5363 142.617 73.2873 142.241 72.9539C141.864 72.6206 141.676 72.2127 141.676 71.7303C141.676 71.248 141.864 70.8244 142.241 70.4871C142.617 70.1499 143.17 69.895 143.898 69.7244C144.625 69.5538 145.49 69.4773 146.488 69.4949C147.496 69.4773 148.359 69.5538 149.072 69.7244C149.786 69.895 150.335 70.1499 150.716 70.4871C151.098 70.8244 151.288 71.2382 151.288 71.7303C151.288 72.2225 151.098 72.6206 150.716 72.9539Z" fill="black"/>
<path d="M164.848 61.5945C165.759 61.9494 166.799 62.1279 167.965 62.1279C169.132 62.1279 170.154 61.9494 171.056 61.5945C171.96 61.2396 172.667 60.7455 173.179 60.1141C173.691 59.4827 173.948 58.7415 173.948 57.8905C173.948 57.0395 173.691 56.3139 173.179 55.661C172.665 55.008 171.956 54.5001 171.048 54.1354C170.14 53.7727 169.112 53.5942 167.963 53.6021C166.797 53.5942 165.757 53.7687 164.846 54.1276C163.934 54.4864 163.224 54.9962 162.714 55.6531C162.206 56.31 161.951 57.0571 161.951 57.8885C161.951 58.7199 162.206 59.4807 162.714 60.1121C163.222 60.7435 163.932 61.2377 164.846 61.5926L164.848 61.5945ZM165.485 56.9061C165.716 56.6257 166.048 56.412 166.477 56.2688C166.906 56.1237 167.403 56.0571 167.963 56.0649C168.516 56.0571 169.001 56.1237 169.416 56.2688C169.832 56.4139 170.159 56.6257 170.397 56.9061C170.634 57.1865 170.752 57.5159 170.752 57.8924C170.752 58.2689 170.634 58.5964 170.397 58.8729C170.159 59.1493 169.834 59.3572 169.416 59.4984C169.001 59.6396 168.514 59.7082 167.963 59.7082C167.412 59.7082 166.906 59.6376 166.477 59.4984C166.048 59.3591 165.716 59.1493 165.485 58.8729C165.251 58.5964 165.136 58.2709 165.136 57.8924C165.136 57.514 165.251 57.1865 165.485 56.9061Z" fill="black"/>
<path d="M166.597 73.597V70.3087H169.963V65.7791C171.956 65.632 173.881 65.4026 175.738 65.0869L175.568 62.679C173.35 62.9594 171.05 63.1417 168.669 63.2241C166.289 63.3084 163.459 63.3711 160.179 63.4143L160.573 66.0575C162.626 66.0634 164.63 66.0301 166.583 65.9556V69.1478H163.216V76.303H181.078V73.5931H166.597V73.597Z" fill="black"/>
<path d="M172.607 66.6929V68.9812H177.185V70.8871H180.552V52.8021H177.185V66.6929H172.607Z" fill="black"/>
</g>
<defs>
<clipPath id="clip0_2_160">
<rect width="180.101" height="100" fill="white" transform="translate(0.976379)"/>
</clipPath>
</defs>
</svg>
