<svg width="241" height="100" viewBox="0 0 241 100" fill="none" xmlns="http://www.w3.org/2000/svg">
<g clip-path="url(#clip0_2_161)">
<path d="M22.5261 72.2275C24.3893 71.0773 27.6848 67.6502 27.8039 65.4187C27.8101 65.3059 27.7459 65.1884 27.7506 65.0756C28.9259 63.0572 28.4448 60.6033 27.1301 58.8341C25.1744 56.2015 21.7207 57.2373 19.4062 58.9814C16.8879 59.5345 15.509 60.5186 12.7667 59.312C12.3169 58.2668 12.1273 57.3752 11.5977 56.3253C8.69708 50.5837 0.866638 54.5012 0.97633 60.2992C1.06408 64.8718 2.69066 67.7411 6.06761 70.568C11.0132 74.7065 16.7626 75.7878 22.5246 72.229L22.5261 72.2275Z" fill="#3276A1"/>
<path d="M33.9106 81.0562C33.8072 80.9622 33.6066 80.9168 33.4749 80.829C28.426 77.4662 26.3841 84.9205 22.1422 85.8278C18.1588 86.6803 18.585 82.1469 14.8727 82.1688C12.2245 82.1845 10.8079 83.167 9.73601 85.364C6.6662 91.6509 12.4219 97.3251 18.0773 99.157C19.6804 99.6757 20.594 99.9891 22.3537 100.003C25.2621 99.776 27.807 98.9768 29.9883 97.6072C32.0866 96.3066 33.8495 93.9168 35.0451 91.6431C37.2076 88.9305 36.457 83.4052 33.9106 81.0594V81.0562Z" fill="#3276A1"/>
<path d="M30.5807 24.8093C35.4353 26.8088 43.7453 26.7242 45.773 20.8306C47.7976 14.9448 39.5535 15.1422 36.9976 11.8436C34.4779 8.59206 37.8548 7.70512 37.5759 4.54286C37.1324 -0.479473 28.9494 -1.61244 26.5283 2.53549C26.2243 2.75331 26.1679 2.93665 25.9955 3.10276C20.0408 8.82555 22.8928 21.6439 30.5807 24.8093Z" fill="#3276A1"/>
<path d="M12.3859 44.5209C16.1608 46.8275 23.1341 47.5092 26.5565 44.22C29.4634 42.9006 32.2715 38.8435 30.4522 35.7925C28.1329 31.9032 21.5154 34.495 18.2795 31.1118C18.3515 30.5884 18.4221 30.731 18.082 30.3596C17.988 28.1235 19.4218 27.1833 18.1698 24.8641C16.2157 21.2458 10.8815 21.3132 8.28965 24.1495C5.0224 27.7223 5.16343 32.9562 6.69442 37.2185C7.69418 40.0016 9.8081 42.9429 12.3874 44.5193L12.3859 44.5209Z" fill="#3276A1"/>
<path d="M37.5383 57.2874C32.2386 57.2404 32.3326 64.8421 37.1434 64.9377C42.6687 65.0474 42.2268 57.3298 37.5383 57.2874Z" fill="#31A8DD"/>
<path d="M37.1684 47.423C42.2487 49.4539 44.7168 42.139 40.2398 40.4059C35.4886 38.5662 32.5802 45.5896 37.1684 47.423Z" fill="#31A8DD"/>
<path d="M51.0837 32.7713C55.0843 33.4765 56.9882 26.8981 52.4956 25.2809C47.7913 23.587 44.5445 31.6195 51.0837 32.7713Z" fill="#31A8DD"/>
<path d="M43.1373 75.3099C38.56 75.8505 39.0285 83.4068 43.5494 83.0573C49.7391 82.5794 47.8571 74.7536 43.1373 75.3099Z" fill="#31A8DD"/>
<path d="M79.765 27.1973L77.8563 26.489L79.403 22.3897H85.3201L86.942 26.5454L85.0553 27.1973V28.0404H91.0084V27.1973L89.8175 26.7257C89.6968 26.6802 89.5903 26.5972 89.4978 26.4734C89.4038 26.3496 89.3301 26.2289 89.2784 26.1082L83.6058 11.6853H82.3365L81.0108 14.3696L76.4398 26.0738C76.3348 26.359 76.1436 26.5642 75.8678 26.6912L74.7223 27.1958V28.0388H79.765V27.1958V27.1973ZM82.2926 14.73H82.4838L82.9226 16.2469L84.7121 20.8289H79.9938L82.2942 14.73H82.2926Z" fill="black"/>
<path d="M103.645 27.1926C104.874 26.6269 105.853 25.7556 106.582 24.5757C107.312 23.3957 107.677 21.8898 107.677 20.0548C107.677 18.7589 107.503 17.6478 107.155 16.7186C106.807 15.7893 106.342 15.0152 105.762 14.3931C105.182 13.771 104.535 13.2805 103.824 12.9217C103.112 12.5613 102.391 12.3074 101.661 12.1585C100.931 12.0081 100.245 11.9344 99.6005 11.9344H92.2323V12.754L93.9623 13.3275C94.0814 13.3651 94.1833 13.4247 94.2647 13.5077C94.3478 13.5908 94.3885 13.7099 94.3885 13.8666V26.0879C94.3885 26.2524 94.3478 26.3778 94.2647 26.4639C94.1817 26.5501 94.0814 26.6112 93.9623 26.6489L92.2323 27.1989V28.0419H99.555C101.053 28.0419 102.415 27.7599 103.643 27.1942L103.645 27.1926ZM96.7485 13.2805H98.9157C100.158 13.2805 101.241 13.5689 102.163 14.1455C103.084 14.7222 103.797 15.5402 104.303 16.5995C104.809 17.6588 105.062 18.9234 105.062 20.3901C105.062 22.3897 104.623 23.9395 103.748 25.0411C102.872 26.1427 101.495 26.6927 99.6146 26.6927H96.75V13.2805H96.7485Z" fill="black"/>
<path d="M110.391 13.4937C110.477 13.6066 110.546 13.7178 110.599 13.8306L116.305 28.2645H117.607L118.876 25.6022L123.471 13.8635C123.516 13.7366 123.59 13.6207 123.695 13.5157C123.8 13.4107 123.913 13.3323 124.032 13.279L125.188 12.751V11.9314H120.157V12.751L122.032 13.4812L117.596 25.2198H117.416L116.99 23.7249L112.934 13.4138L114.81 12.751V11.9314H108.857V12.751L110.048 13.2446C110.19 13.2963 110.303 13.3793 110.391 13.4922V13.4937Z" fill="black"/>
<path d="M124.189 28.0404H129.231V27.1973L127.323 26.489L128.869 22.3897H134.787L136.408 26.5454L134.522 27.1973V28.0404H140.475V27.1973L139.284 26.7257C139.163 26.6802 139.057 26.5972 138.964 26.4734C138.87 26.3496 138.797 26.2289 138.745 26.1082L133.072 11.6853H131.803L130.477 14.3696L125.906 26.0738C125.801 26.359 125.61 26.5642 125.334 26.6912L124.189 27.1958V28.0388V28.0404ZM131.761 14.73H131.952L132.391 16.2469L134.18 20.8289H129.462L131.762 14.73H131.761Z" fill="black"/>
<path d="M143.733 13.5172C143.816 13.6003 143.857 13.7194 143.857 13.8761V26.019C143.857 26.1757 143.817 26.2964 143.739 26.3778C143.661 26.4609 143.557 26.5236 143.43 26.569L141.7 27.1974V28.0405H147.508V27.1974L145.812 26.569C145.707 26.5314 145.61 26.4719 145.521 26.3888C145.431 26.3058 145.386 26.1835 145.386 26.0174V14.6392H145.566L146.431 16.1107L154.912 28.1517H156.249L156.586 25.5458V13.92C156.586 13.7695 156.634 13.6551 156.731 13.5768C156.828 13.4984 156.926 13.4404 157.023 13.4028L158.742 12.751V11.9314H152.934V12.751L154.641 13.4028C154.76 13.4483 154.865 13.5063 154.956 13.5768C155.045 13.6473 155.091 13.7617 155.091 13.92V24.4896H154.91L154.045 23.0401L146.249 11.9314H141.633V12.751L143.43 13.3355C143.549 13.3731 143.651 13.4326 143.733 13.5157V13.5172Z" fill="black"/>
<path d="M164.698 27.4058C165.892 28.0608 167.287 28.3883 168.882 28.3883C169.683 28.3883 170.447 28.2598 171.173 28.0013C171.899 27.7427 172.566 27.4246 173.173 27.0469C173.779 26.6693 174.299 26.2995 174.733 25.9406V24.4472H174.16C173.688 24.8374 173.224 25.1963 172.767 25.5254C172.309 25.8544 171.823 26.1208 171.306 26.323C170.789 26.5251 170.206 26.627 169.554 26.627C167.6 26.627 166.105 26.0299 165.073 24.8359C164.04 23.6418 163.523 21.8726 163.523 19.5283C163.523 17.311 164.005 15.6625 164.972 14.5797C165.938 13.4968 167.188 12.9562 168.724 12.9562C169.368 12.9562 169.963 13.022 170.51 13.1521C171.057 13.2837 171.566 13.4686 172.038 13.7084C172.165 13.7679 172.286 13.84 172.398 13.9215C172.511 14.0046 172.579 14.1048 172.601 14.2239L173.039 16.5259H174.354V12.414C173.92 12.3012 173.383 12.1821 172.742 12.0552C172.101 11.9282 171.444 11.817 170.77 11.7245C170.096 11.6305 169.482 11.5835 168.927 11.5835C167.392 11.5835 166.022 11.9298 164.816 12.6224C163.611 13.3151 162.661 14.2945 161.968 15.5591C161.276 16.8252 160.929 18.3108 160.929 20.0188C160.929 21.7269 161.258 23.2955 161.918 24.546C162.578 25.7965 163.504 26.7492 164.698 27.4042V27.4058Z" fill="black"/>
<path d="M190.371 23.7719H189.056L188.606 26.2431C188.584 26.3779 188.529 26.4829 188.443 26.5581C188.357 26.6333 188.258 26.6709 188.145 26.6709H181.529V20.3464H184.978C185.129 20.3464 185.239 20.3824 185.309 20.4529C185.38 20.5234 185.431 20.6316 185.461 20.7726L185.865 22.5371H186.944V16.797H185.865L185.461 18.5725C185.431 18.7151 185.381 18.8185 185.309 18.8812C185.237 18.9454 185.127 18.9768 184.978 18.9768H181.529V13.3041H187.269C187.396 13.3041 187.501 13.3402 187.584 13.4107C187.668 13.4812 187.722 13.5846 187.754 13.7194L188.192 15.932H189.518V11.933H177.016V12.7525L178.746 13.3261C178.866 13.3637 178.967 13.4232 179.049 13.5063C179.132 13.5893 179.173 13.7084 179.173 13.8651V26.0864C179.173 26.2509 179.133 26.3763 179.055 26.4625C178.977 26.5487 178.873 26.6098 178.746 26.6474L177.016 27.1974V28.0405H190.372V23.7719H190.371Z" fill="black"/>
<path d="M204.355 27.1926C205.583 26.6269 206.563 25.7556 207.291 24.5757C208.022 23.3957 208.387 21.8898 208.387 20.0548C208.387 18.7589 208.213 17.6478 207.865 16.7186C207.517 15.7893 207.052 15.0152 206.472 14.3931C205.892 13.771 205.245 13.2805 204.533 12.9217C203.822 12.5613 203.101 12.3074 202.371 12.1585C201.641 12.0081 200.953 11.9344 200.31 11.9344H192.942V12.754L194.672 13.3275C194.791 13.3651 194.893 13.4247 194.975 13.5077C195.058 13.5908 195.098 13.7099 195.098 13.8666V26.0879C195.098 26.2524 195.058 26.3778 194.975 26.4639C194.892 26.5501 194.791 26.6112 194.672 26.6489L192.942 27.1989V28.0419H200.265C201.763 28.0419 203.125 27.7599 204.353 27.1942L204.355 27.1926ZM197.458 13.2805H199.626C200.868 13.2805 201.951 13.5689 202.872 14.1455C203.794 14.7222 204.507 15.5402 205.013 16.5995C205.519 17.6588 205.771 18.9234 205.771 20.3901C205.771 22.3897 205.333 23.9395 204.458 25.0411C203.582 26.1427 202.205 26.6927 200.324 26.6927H197.46V13.2805H197.458Z" fill="black"/>
<path d="M59.3278 43.8392C59.414 43.753 59.5174 43.6919 59.6365 43.6543L61.4449 43.0808V42.2612H54.5938V43.0808L56.4131 43.6543C56.5322 43.6919 56.6341 43.7515 56.7156 43.8345C56.7971 43.9176 56.8394 44.0367 56.8394 44.1934V56.4146C56.8394 56.5792 56.8018 56.703 56.7265 56.786C56.6513 56.8691 56.5463 56.9318 56.4116 56.9772L54.5923 57.5272V58.3703H61.4433V57.5272L59.635 56.9772C59.5159 56.9396 59.4124 56.8785 59.3263 56.7923C59.2401 56.7061 59.1978 56.5807 59.1978 56.4162V44.1949C59.1978 44.0445 59.2416 43.927 59.3263 43.8408L59.3278 43.8392Z" fill="black"/>
<path d="M65.972 43.8439C66.0551 43.9269 66.0958 44.046 66.0958 44.2027V56.3457C66.0958 56.5024 66.0566 56.623 65.9783 56.7045C65.8999 56.7875 65.7965 56.8502 65.6696 56.8957L63.9396 57.5241V58.3671H69.747V57.5241L68.0515 56.8957C67.9465 56.8581 67.8493 56.7985 67.76 56.7155C67.6707 56.6324 67.6252 56.5102 67.6252 56.3441V44.9659H67.8054L68.6704 46.4373L77.1512 58.4784H78.4879L78.8248 55.8724V44.2466C78.8248 44.0962 78.8734 43.9818 78.9705 43.9034C79.0677 43.8251 79.1648 43.7671 79.262 43.7295L80.981 43.0776V42.2581H75.1736V43.0776L76.8801 43.7295C76.9992 43.7749 77.1042 43.8329 77.1951 43.9034C77.2844 43.974 77.3298 44.0883 77.3298 44.2466V54.8162H77.1496L76.2846 53.3667L68.4887 42.2581H63.8722V43.0776L65.6696 43.6621C65.7887 43.6997 65.8905 43.7593 65.972 43.8423V43.8439Z" fill="black"/>
<path d="M85.6508 58.773C85.621 59.5299 85.5192 60.0611 85.3483 60.3683C85.2277 60.5782 85.0318 60.7475 84.7591 60.8791C84.4865 61.0107 84.0947 61.0766 83.5854 61.0766C83.3081 61.0766 83.0119 61.0374 82.6985 60.959C82.3835 60.8807 82.0795 60.7867 81.7834 60.6785C81.4872 60.5704 81.2271 60.467 81.003 60.3698H80.442L80.3527 62.6279C80.5626 62.6796 80.8134 62.7329 81.1048 62.7846C81.3963 62.8363 81.6878 62.8802 81.9745 62.9131C82.2613 62.946 82.4964 62.9633 82.6766 62.9633C83.7327 62.9633 84.6667 62.7157 85.48 62.2221C86.2917 61.7284 86.9295 60.9747 87.3886 59.964C87.8493 58.9532 88.0797 57.6683 88.0797 56.1106V44.1934C88.0797 44.0429 88.1189 43.9254 88.1972 43.8392C88.2756 43.753 88.3743 43.6919 88.4949 43.6543L90.214 43.0808V42.2612H83.272V43.0808L85.2716 43.6543C85.4063 43.6919 85.5113 43.7515 85.5865 43.8345C85.6618 43.9176 85.6994 44.0367 85.6994 44.1934V56.0887C85.6994 57.1214 85.6837 58.0161 85.6539 58.773H85.6508Z" fill="black"/>
<path d="M94.2099 43.8392C94.2913 43.9176 94.3337 44.0367 94.3337 44.1934V54.0108C94.3337 54.8194 94.5656 55.5857 95.0294 56.3081C95.4933 57.0305 96.1843 57.6181 97.1026 58.071C98.0193 58.5238 99.1632 58.7511 100.534 58.7511C101.141 58.7511 101.801 58.6539 102.512 58.4596C103.223 58.2653 103.897 57.9613 104.533 57.5492C105.17 57.137 105.691 56.598 106.1 55.932C106.509 55.266 106.713 54.4605 106.713 53.5172V44.2498C106.713 44.0993 106.754 43.9881 106.837 43.9129C106.918 43.8376 107.02 43.7781 107.139 43.7327L108.858 43.0808V42.2612H103.062V43.0808L104.781 43.7327C104.894 43.7703 104.991 43.8267 105.073 43.9019C105.154 43.9771 105.196 44.0931 105.196 44.2498V52.8982C105.196 53.2884 105.13 53.724 105 54.2067C104.869 54.6893 104.64 55.1516 104.316 55.5935C103.99 56.0354 103.545 56.4005 102.979 56.6889C102.413 56.9772 101.692 57.1214 100.816 57.1214C99.9405 57.1214 99.2306 56.9803 98.6884 56.6998C98.1447 56.4193 97.7294 56.0573 97.4411 55.6154C97.1528 55.1735 96.9584 54.7081 96.8566 54.2176C96.7563 53.7272 96.7046 53.2759 96.7046 52.8637V44.1918C96.7046 44.0414 96.7453 43.9238 96.8284 43.8376C96.9099 43.7515 97.0117 43.6903 97.1308 43.6527L98.8498 43.0792V42.2596H92.1774V43.0792L93.8839 43.6527C94.0187 43.6982 94.1268 43.7593 94.2099 43.8376V43.8392Z" fill="black"/>
<path d="M117.637 51.4941L121.572 56.9192C121.841 57.2937 122.062 57.5852 122.235 57.7952C122.407 58.0052 122.617 58.1525 122.863 58.2386C123.111 58.3248 123.485 58.3671 123.987 58.3671H126.705V57.5241L124.975 57.0195C124.811 56.9741 124.637 56.8675 124.454 56.6998C124.27 56.5321 124.137 56.388 124.056 56.2673L119.922 50.7859C120.447 50.6511 120.973 50.416 121.504 50.0776C122.081 49.7109 122.564 49.2141 122.954 48.5889C123.344 47.9636 123.538 47.213 123.538 46.3371C123.538 45.8497 123.458 45.3671 123.297 44.8876C123.136 44.408 122.844 43.9708 122.421 43.5728C121.998 43.1764 121.399 42.8583 120.624 42.6185C119.85 42.3787 118.847 42.2596 117.62 42.2596H111.038V43.0792L112.768 43.6527C112.887 43.6903 112.989 43.7499 113.071 43.8329C113.152 43.916 113.194 44.0351 113.194 44.1918V56.4131C113.194 56.5776 113.155 56.703 113.077 56.7891C112.999 56.8753 112.895 56.9364 112.768 56.974L111.038 57.5241V58.3671H117.754V57.5241L115.981 56.974C115.86 56.9364 115.76 56.8753 115.677 56.7891C115.595 56.703 115.553 56.5776 115.553 56.4131V51.0679L117.639 51.4941H117.637ZM117.225 43.6089C118.468 43.6089 119.411 43.8611 120.055 44.3673C120.699 44.8735 121.02 45.6867 121.02 46.8103C121.02 47.365 120.892 47.8853 120.633 48.3711C120.375 48.8584 119.983 49.2486 119.459 49.5448C118.934 49.8409 118.268 49.9882 117.46 49.9882C117.295 49.9882 117.068 49.9804 116.78 49.9663C116.491 49.9506 116.22 49.9303 115.965 49.9036C115.774 49.8832 115.634 49.866 115.55 49.8472V43.6073H117.223L117.225 43.6089Z" fill="black"/>
<path d="M139.398 44.1934C139.466 44.0805 139.547 43.9693 139.646 43.8565C139.743 43.7436 139.851 43.6622 139.972 43.6089L141.174 43.0808V42.2612H136.131V43.0808L137.961 43.811L134.142 50.6965H133.962L133.345 49.3144L130.111 43.7436L131.964 43.0808V42.2612H126.011V43.0808L127.259 43.5744C127.385 43.6261 127.497 43.7092 127.589 43.822C127.683 43.9348 127.76 44.0461 127.82 44.1589L132.391 52.3247V56.4131C132.391 56.5776 132.351 56.703 132.273 56.7892C132.195 56.8753 132.088 56.9365 131.953 56.9741L130.111 57.5241V58.3672H137.041V57.5241L135.177 56.9741C135.058 56.9365 134.957 56.8753 134.879 56.7892C134.801 56.703 134.761 56.5776 134.761 56.4131V52.2573L139.4 44.1918L139.398 44.1934Z" fill="black"/>
<path d="M155.741 41.8899C155.097 41.8899 154.44 42.0325 153.77 42.3161C153.099 42.6013 152.538 43.0088 152.085 43.54C151.632 44.0712 151.405 44.7152 151.405 45.4721C151.405 45.8842 151.46 46.2854 151.568 46.674C151.676 47.0642 151.897 47.4905 152.231 47.9543C152.565 48.4181 153.06 48.965 153.719 49.595L151.248 51.2122C150.882 51.6384 150.576 52.1477 150.333 52.74C150.09 53.3323 149.968 53.8902 149.968 54.4136C149.968 55.3052 150.187 56.0715 150.625 56.7156C151.063 57.3596 151.645 57.8532 152.372 58.198C153.097 58.5427 153.884 58.7151 154.73 58.7151C155.426 58.7151 156.086 58.6023 156.706 58.3782C157.328 58.1541 157.918 57.8407 158.475 57.4411C159.033 57.0399 159.552 56.5777 160.031 56.0543L160.874 56.9302C161.249 57.3126 161.545 57.6088 161.761 57.8172C161.979 58.0272 162.213 58.1713 162.463 58.2497C162.714 58.328 163.071 58.3672 163.535 58.3672H165.985V57.5241L164.22 57.007C164.032 56.9475 163.842 56.8409 163.648 56.6874C163.454 56.5338 163.288 56.3896 163.155 56.2549L161.414 54.5139C161.818 53.967 162.195 53.4107 162.548 52.8466C162.901 52.2809 163.227 51.7293 163.526 51.1902C163.631 50.9959 163.758 50.8345 163.908 50.7076C164.057 50.5806 164.208 50.4897 164.358 50.438L165.751 49.9444V49.1249H159.922V49.9444L161.943 50.5853C161.913 50.7797 161.855 51.0351 161.769 51.3485C161.683 51.6635 161.55 52.0223 161.371 52.4266C161.191 52.8309 160.94 53.265 160.619 53.7288L156.452 49.5386L158.935 47.9653C159.212 47.6143 159.442 47.1865 159.626 46.685C159.809 46.1836 159.9 45.6445 159.9 45.0678C159.9 44.4614 159.72 43.9176 159.361 43.4397C159.002 42.9602 158.508 42.5825 157.883 42.3052C157.258 42.0278 156.545 41.8899 155.742 41.8899H155.741ZM159.234 55.2567C158.709 55.7879 158.11 56.189 157.436 56.4586C156.763 56.7281 156.021 56.8629 155.213 56.8629C154.704 56.8629 154.232 56.7532 153.798 56.5322C153.364 56.3113 153.013 55.9932 152.748 55.5779C152.481 55.1626 152.35 54.6659 152.35 54.0892C152.35 53.0942 152.543 52.3388 152.928 51.8264C153.314 51.314 153.84 50.847 154.506 50.4271L159.235 55.2567H159.234ZM157.325 47.1692C157.04 47.7678 156.49 48.2881 155.674 48.73C154.917 48.0185 154.387 47.4184 154.085 46.9279C153.782 46.4374 153.63 45.8921 153.63 45.2935C153.63 44.6949 153.829 44.1652 154.226 43.7484C154.622 43.3331 155.117 43.1247 155.708 43.1247C156.299 43.1247 156.816 43.3112 157.19 43.6857C157.565 44.0602 157.751 44.5805 157.751 45.2465C157.751 45.9125 157.609 46.569 157.325 47.1676V47.1692Z" fill="black"/>
<path d="M186.169 57.5194C187.398 56.9537 188.376 56.0824 189.106 54.9025C189.836 53.7225 190.201 52.2166 190.201 50.3816C190.201 49.0856 190.027 47.9746 189.68 47.0454C189.332 46.1161 188.866 45.342 188.287 44.7199C187.707 44.0978 187.06 43.6073 186.348 43.2485C185.637 42.888 184.916 42.6342 184.186 42.4853C183.455 42.3349 182.769 42.2612 182.125 42.2612H174.757V43.0808L176.487 43.6543C176.606 43.6919 176.708 43.7515 176.789 43.8345C176.872 43.9176 176.913 44.0367 176.913 44.1934V56.4146C176.913 56.5792 176.872 56.7045 176.789 56.7907C176.706 56.8769 176.606 56.938 176.487 56.9756L174.757 57.5257V58.3687H182.08C183.578 58.3687 184.939 58.0867 186.168 57.521L186.169 57.5194ZM179.273 43.6089H181.44C182.683 43.6089 183.766 43.8972 184.687 44.4739C185.608 45.0505 186.321 45.8685 186.828 46.9278C187.334 47.9872 187.586 49.2517 187.586 50.7185C187.586 52.718 187.147 54.2678 186.273 55.3694C185.397 56.4711 184.018 57.0211 182.139 57.0211H179.275V43.6089H179.273Z" fill="black"/>
<path d="M199.48 57.5257L197.671 56.9756C197.552 56.938 197.449 56.8769 197.363 56.7907C197.277 56.7045 197.234 56.5792 197.234 56.4146V44.1934C197.234 44.0429 197.278 43.9254 197.363 43.8392C197.449 43.753 197.552 43.6919 197.671 43.6543L199.48 43.0808V42.2612H192.629V43.0808L194.448 43.6543C194.567 43.6919 194.669 43.7515 194.751 43.8345C194.834 43.9176 194.874 44.0367 194.874 44.1934V56.4146C194.874 56.5792 194.837 56.703 194.761 56.786C194.686 56.8691 194.581 56.9318 194.447 56.9772L192.627 57.5272V58.3703H199.478V57.5272L199.48 57.5257Z" fill="black"/>
<path d="M205.207 42.4791C204.383 42.8724 203.73 43.4083 203.247 44.0853C202.764 44.7638 202.523 45.5364 202.523 46.4045C202.523 47.3698 202.782 48.194 203.299 48.8757C203.816 49.5573 204.527 50.0854 205.433 50.46C206.032 50.7076 206.644 50.9269 207.27 51.1165C207.895 51.3077 208.529 51.5381 209.173 51.8076C209.839 52.085 210.372 52.4407 210.769 52.8748C211.165 53.3088 211.364 53.8588 211.364 54.5264C211.364 55.4102 211.03 56.106 210.364 56.6153C209.698 57.1245 208.78 57.3784 207.613 57.3784C207.216 57.3784 206.828 57.3282 206.45 57.2264C206.072 57.1261 205.715 56.9929 205.377 56.8284C205.04 56.6638 204.729 56.4915 204.444 56.3112C204.361 56.2517 204.262 56.1686 204.146 56.0637C204.03 55.9587 203.962 55.8537 203.938 55.7487L203.466 53.4232H202.141L202.208 57.7247C202.793 57.8814 203.383 58.0397 203.982 58.1964C204.58 58.3531 205.168 58.4847 205.746 58.5897C206.323 58.6947 206.87 58.7464 207.385 58.7464C208.876 58.7464 210.081 58.5145 211.002 58.0506C211.924 57.5868 212.597 56.9851 213.024 56.2486C213.45 55.5105 213.665 54.7348 213.665 53.9184C213.665 53.102 213.517 52.4752 213.221 51.9471C212.925 51.419 212.547 50.9865 212.087 50.6496C211.626 50.3127 211.145 50.04 210.643 49.83C209.962 49.5448 209.333 49.3066 208.757 49.1107C208.18 48.9164 207.592 48.7112 206.992 48.4933C206.086 48.1564 205.474 47.7349 205.156 47.2303C204.837 46.7242 204.678 46.1804 204.678 45.5959C204.678 44.944 204.972 44.394 205.56 43.9442C206.148 43.4945 206.973 43.2704 208.036 43.2704C208.388 43.2704 208.717 43.3033 209.025 43.3707C209.332 43.4381 209.611 43.5259 209.861 43.6355C210.112 43.7437 210.324 43.8612 210.496 43.9897C210.585 44.0492 210.687 44.1307 210.8 44.231C210.913 44.3313 210.98 44.4347 211.002 44.5397L211.452 46.7414H212.767V42.6185C212.309 42.5057 211.828 42.3945 211.323 42.2816C210.817 42.1688 210.286 42.0763 209.728 42.0011C209.17 41.9259 208.584 41.8883 207.97 41.8883C206.951 41.8883 206.03 42.0858 205.207 42.4775V42.4791Z" fill="black"/>
<path d="M219.882 57.734C221.077 58.3891 222.471 58.7166 224.066 58.7166C224.867 58.7166 225.632 58.5881 226.357 58.3295C227.083 58.071 227.751 57.7528 228.357 57.3752C228.963 56.9975 229.484 56.6277 229.918 56.2689V54.7755H229.344C228.873 55.1657 228.409 55.5245 227.951 55.8536C227.494 56.1827 227.008 56.4491 226.491 56.6512C225.974 56.8534 225.391 56.9552 224.739 56.9552C222.785 56.9552 221.29 56.3582 220.257 55.1641C219.224 53.97 218.707 52.2009 218.707 49.8566C218.707 47.6392 219.19 45.9907 220.157 44.9079C221.122 43.8251 222.372 43.2845 223.908 43.2845C224.552 43.2845 225.148 43.3503 225.695 43.4803C226.241 43.612 226.751 43.7969 227.222 44.0366C227.349 44.0962 227.47 44.1683 227.583 44.2498C227.696 44.3328 227.763 44.4331 227.785 44.5522L228.224 46.8542H229.539V42.7423C229.104 42.6294 228.567 42.5104 227.926 42.3834C227.285 42.2565 226.629 42.1452 225.955 42.0528C225.281 41.9588 224.667 41.9117 224.112 41.9117C222.576 41.9117 221.207 42.2581 220 42.9507C218.795 43.6433 217.845 44.6227 217.153 45.8873C216.46 47.1535 216.114 48.639 216.114 50.3471C216.114 52.0551 216.443 53.6237 217.103 54.8742C217.762 56.1247 218.688 57.0775 219.882 57.7325V57.734Z" fill="black"/>
<path d="M112.663 94.3665C112.303 94.6266 111.919 94.8366 111.511 94.9949C111.104 95.1547 110.643 95.2346 110.129 95.2346C108.587 95.2346 107.409 94.7629 106.594 93.8211C105.779 92.8794 105.372 91.4831 105.372 89.6356C105.372 87.8868 105.753 86.5862 106.514 85.7337C107.276 84.8797 108.263 84.4534 109.473 84.4534C109.98 84.4534 110.451 84.5052 110.881 84.6086C111.312 84.712 111.714 84.8577 112.087 85.0473C112.187 85.0944 112.281 85.1508 112.37 85.215C112.459 85.2808 112.511 85.3592 112.53 85.4548L112.875 87.271H113.911V84.0288C113.567 83.941 113.144 83.8454 112.64 83.7451C112.135 83.6449 111.616 83.5571 111.085 83.4835C110.554 83.4098 110.07 83.3722 109.633 83.3722C108.421 83.3722 107.342 83.6449 106.39 84.1918C105.439 84.7386 104.69 85.5112 104.145 86.5078C103.598 87.506 103.325 88.6782 103.325 90.0258C103.325 91.3734 103.585 92.6098 104.106 93.5955C104.626 94.5827 105.356 95.3333 106.298 95.8505C107.24 96.3676 108.34 96.6261 109.598 96.6261C110.23 96.6261 110.833 96.5243 111.405 96.3206C111.978 96.1168 112.503 95.8661 112.981 95.5668C113.459 95.2691 113.87 94.9776 114.213 94.694V93.5156H113.762C113.39 93.8227 113.024 94.1064 112.663 94.3665Z" fill="#999999"/>
<path d="M125.154 94.9338C125.137 95.0404 125.093 95.1234 125.026 95.1814C124.958 95.2409 124.88 95.2707 124.79 95.2707H119.572V90.2829H122.293C122.41 90.2829 122.498 90.3111 122.554 90.3675C122.611 90.4239 122.65 90.5085 122.673 90.6198L122.992 92.0113H123.842V87.4841H122.992L122.673 88.8835C122.65 88.9963 122.609 89.0778 122.554 89.1264C122.498 89.1765 122.412 89.2016 122.293 89.2016H119.572V84.7277H124.099C124.2 84.7277 124.283 84.7559 124.347 84.8124C124.413 84.8688 124.457 84.9503 124.48 85.0553L124.825 86.8009H125.87V83.6465H116.01V84.2937L117.375 84.745C117.469 84.7747 117.549 84.8218 117.615 84.886C117.681 84.9518 117.712 85.0458 117.712 85.1696V94.8084C117.712 94.9385 117.681 95.0372 117.62 95.1046C117.559 95.172 117.477 95.2206 117.377 95.2503L116.012 95.6844V96.3488H126.546V92.9829H125.51L125.156 94.9322L125.154 94.9338Z" fill="#999999"/>
<path d="M137.433 84.2937L138.779 84.8077C138.873 84.8437 138.956 84.8892 139.027 84.9456C139.097 85.002 139.133 85.0913 139.133 85.2151V93.5517H138.992L138.311 92.4093L132.162 83.6481H128.52V84.2953L129.938 84.756C130.032 84.7857 130.112 84.8328 130.178 84.897C130.244 84.9628 130.275 85.0568 130.275 85.1806V94.7583C130.275 94.8821 130.244 94.9761 130.183 95.0419C130.12 95.1078 130.04 95.1563 129.94 95.1924L128.575 95.6891V96.3535H133.155V95.6891L131.817 95.1924C131.734 95.1626 131.657 95.1156 131.587 95.0513C131.516 94.9855 131.48 94.8884 131.48 94.7583V85.7839H131.621L132.303 86.9451L138.992 96.4429H140.047L140.313 94.3869V85.2182C140.313 85.1007 140.351 85.0098 140.428 84.9487C140.505 84.886 140.581 84.8406 140.658 84.8108L142.014 84.2968V83.6496H137.433V84.2968V84.2937Z" fill="#999999"/>
<path d="M143.422 86.9514H144.458L144.812 85.0474C144.83 84.9409 144.875 84.8578 144.946 84.7998C145.016 84.7418 145.099 84.7105 145.193 84.7105H148.117V94.81C148.117 94.9401 148.086 95.0388 148.025 95.1062C147.962 95.1736 147.879 95.2221 147.773 95.2519L146.31 95.686V96.3504H151.786V95.686L150.324 95.2519C150.23 95.2221 150.148 95.1736 150.081 95.1062C150.013 95.0388 149.979 94.9385 149.979 94.81V84.7105H152.911C153.005 84.7105 153.085 84.7371 153.151 84.7904C153.216 84.8437 153.26 84.9299 153.284 85.0474L153.638 86.9514H154.674V83.6465H143.422V86.9514Z" fill="#999999"/>
<path d="M165.409 94.9338C165.392 95.0404 165.348 95.1234 165.281 95.1814C165.214 95.2409 165.135 95.2707 165.046 95.2707H159.828V90.2829H162.548C162.666 90.2829 162.753 90.3111 162.81 90.3675C162.866 90.4239 162.905 90.5085 162.929 90.6198L163.247 92.0113H164.098V87.4841H163.247L162.929 88.8835C162.905 88.9963 162.865 89.0778 162.81 89.1264C162.753 89.1765 162.667 89.2016 162.548 89.2016H159.828V84.7277H164.355C164.455 84.7277 164.538 84.7559 164.602 84.8124C164.668 84.8688 164.712 84.9503 164.736 85.0553L165.08 86.8009H166.126V83.6465H156.266V84.2937L157.631 84.745C157.725 84.7747 157.805 84.8218 157.87 84.886C157.936 84.9518 157.968 85.0458 157.968 85.1696V94.8084C157.968 94.9385 157.936 95.0372 157.875 95.1046C157.814 95.172 157.733 95.2206 157.632 95.2503L156.267 95.6844V96.3488H166.801V92.9829H165.765L165.411 94.9322L165.409 94.9338Z" fill="#999999"/>
<path d="M179.411 95.0357C179.267 94.9025 179.162 94.7896 179.096 94.694L175.835 90.369C176.249 90.2625 176.665 90.0807 177.085 89.8128C177.54 89.5229 177.921 89.1327 178.228 88.639C178.535 88.1454 178.688 87.5531 178.688 86.862C178.688 86.4781 178.626 86.0973 178.499 85.7197C178.372 85.342 178.142 84.9957 177.808 84.6839C177.474 84.3705 177.002 84.1197 176.39 83.9301C175.778 83.7421 174.989 83.6465 174.02 83.6465H168.829V84.2937L170.194 84.745C170.288 84.7747 170.367 84.8218 170.433 84.886C170.499 84.9518 170.53 85.0458 170.53 85.1696V94.8084C170.53 94.9385 170.499 95.0372 170.438 95.1046C170.377 95.172 170.295 95.2206 170.195 95.2503L168.83 95.6844V96.3488H174.128V95.6844L172.729 95.2503C172.635 95.2206 172.555 95.172 172.489 95.1046C172.425 95.0372 172.392 94.9369 172.392 94.8084V90.5916L174.037 90.9285L177.14 95.208C177.353 95.5042 177.527 95.7346 177.664 95.8991C177.8 96.0652 177.964 96.1812 178.16 96.2485C178.355 96.3159 178.651 96.3504 179.046 96.3504H181.189V95.686L179.825 95.288C179.694 95.2519 179.557 95.1689 179.412 95.0357H179.411ZM173.361 89.7234C173.133 89.7109 172.919 89.6952 172.718 89.6749C172.568 89.6592 172.458 89.6451 172.391 89.631V84.7089H173.71C174.691 84.7089 175.435 84.9079 175.943 85.3075C176.451 85.7056 176.705 86.348 176.705 87.235C176.705 87.6722 176.603 88.0827 176.399 88.4667C176.195 88.8506 175.887 89.1593 175.473 89.3928C175.059 89.6263 174.534 89.7422 173.896 89.7422C173.766 89.7422 173.588 89.736 173.361 89.725V89.7234Z" fill="#999999"/>
<path d="M240.022 67.6063H44.4896V73.6316H240.022V67.6063Z" fill="url(#paint0_linear_2_161)"/>
</g>
<defs>
<linearGradient id="paint0_linear_2_161" x1="44.4896" y1="70.6197" x2="240.024" y2="70.6197" gradientUnits="userSpaceOnUse">
<stop stop-color="white" stop-opacity="0"/>
<stop offset="0.29" stop-color="#929497"/>
<stop offset="0.47" stop-color="#221E1F"/>
<stop offset="0.7" stop-color="#848688"/>
<stop offset="1" stop-color="white" stop-opacity="0"/>
</linearGradient>
<clipPath id="clip0_2_161">
<rect width="239.047" height="100" fill="white" transform="translate(0.976379)"/>
</clipPath>
</defs>
</svg>
